<svg width="141" height="100" viewBox="0 0 141 100" fill="none" xmlns="http://www.w3.org/2000/svg">
<path d="M140.845 87.5V12.5C140.845 5.58333 135.297 0 128.425 0H12.4202C5.54769 0 0 5.58333 0 12.5V87.5C0 94.4167 5.54769 100 12.4202 100H128.425C135.297 100 140.845 94.4167 140.845 87.5ZM129.998 11.5833C132.731 14.3333 131.24 17.1667 129.75 18.5833L96.1324 49.5833L128.425 83.4167C129.418 84.5833 130.081 86.4167 128.922 87.6667C127.845 89 125.361 88.9167 124.285 88.0833L88.1006 57L70.3811 73.25L52.7445 57L16.5603 88.0833C15.4839 88.9167 12.9998 89 11.9234 87.6667C10.7642 86.4167 11.4266 84.5833 12.4202 83.4167L44.7127 49.5833L11.0954 18.5833C9.60495 17.1667 8.11453 14.3333 10.847 11.5833C13.5794 8.83333 16.3947 10.1667 18.7131 12.1667L70.3811 54.1667L122.132 12.1667C124.45 10.1667 127.266 8.83333 129.998 11.5833Z" fill="black"/>
</svg>
