<svg width="100" height="100" viewBox="0 0 100 100" fill="none" xmlns="http://www.w3.org/2000/svg">
<path d="M50 0C22.39 0 0 22.39 0 50C0 77.61 22.39 100 50 100C77.61 100 100 77.61 100 50C100 22.39 77.61 0 50 0ZM35.4706 75.5859H23.2933V38.9503H35.4706V75.5859ZM29.3824 33.9478H29.303C25.2167 33.9478 22.5738 31.1348 22.5738 27.6192C22.5738 24.0241 25.2976 21.289 29.4632 21.289C33.6289 21.289 36.1924 24.0241 36.2717 27.6192C36.2717 31.1348 33.6289 33.9478 29.3824 33.9478ZM79.3792 75.5859H67.2035V55.9868C67.2035 51.0613 65.4403 47.7021 61.0344 47.7021C57.6706 47.7021 55.6671 49.9679 54.7867 52.1552C54.4648 52.9381 54.3862 54.0321 54.3862 55.127V75.5859H42.2097C42.2097 75.5859 42.369 42.3875 42.2097 38.9503H54.3862V44.1376C56.0043 41.6413 58.8997 38.0905 65.3603 38.0905C73.3719 38.0905 79.3792 43.3265 79.3792 54.5792V75.5859Z" fill="black"/>
</svg>
