<svg id="Calque_1" data-name="Calque 1" xmlns="http://www.w3.org/2000/svg" viewBox="0 0 348.96 302.33"><defs><style>.cls-1{fill:#fff;}</style></defs><path d="M149.76,299.16,1.11,150.44,150.23,1.26,298.88,150Zm.38-280.69L18.78,149.88c43.77,43.79,87.8,87.83,131.38,131.44L281.52,149.9Z" transform="translate(-1.11 3.17)"/><path d="M158.94,260.57V36.29L270.7,148.76Zm12.37-193V230.38l82.12-82.14Z" transform="translate(-1.11 3.17)"/><path d="M139.11,261.45c-1.44-1.36-2.26-2.09-3-2.86q-35.25-35.25-70.5-70.51c-11.34-11.31-19.61-25-28.9-38a19.32,19.32,0,0,1,1.92,1.13c9.9,7.36,19.81,14.71,29.65,22.16a51.28,51.28,0,0,1,5.14,4.87q25.65,25.63,51.29,51.3c.43.43.91.82,1.68,1.53a19.86,19.86,0,0,0,.32-2.48c0-42.91-.26-85.83.19-128.75.12-11.74,2.35-23.47,3.73-35.19a59.78,59.78,0,0,1,2.76-12.4c1.62,11,3.41,22,4.8,33.08a137.85,137.85,0,0,1,.92,16.88q.09,77.19,0,154.38Z" transform="translate(-1.11 3.17)"/><rect class="cls-1" x="346.79" width="2.17" height="2.17"/></svg>