<svg width="88" height="100" viewBox="0 0 88 100" fill="none" xmlns="http://www.w3.org/2000/svg">
<path d="M81.232 20.3756L49.7335 1.67453C47.8959 0.578599 45.7961 0 43.6565 0C41.5169 0 39.4171 0.578599 37.5795 1.67453L6.07439 20.3756C4.21155 21.4994 2.67241 23.0876 1.60765 24.9849C0.542883 26.8821 -0.011017 29.0233 0.000166039 31.1989V68.5949C-0.0099331 70.7695 0.544481 72.9093 1.60919 74.8054C2.67391 76.7014 4.21247 78.2886 6.07439 79.4118L37.5729 98.1068C39.4107 99.2022 41.5105 99.7804 43.6501 99.7804C45.7895 99.7804 47.8893 99.2022 49.7273 98.1068L81.2258 79.4118C83.0898 78.2888 84.6302 76.701 85.696 74.8037C86.762 72.9063 87.3168 70.7649 87.3062 68.5887V31.1989C87.3174 29.0233 86.7636 26.8821 85.6988 24.9849C84.634 23.0876 83.0948 21.4994 81.232 20.3756Z" fill="white"/>
<path d="M81.4114 20.4206L49.8433 1.67838C48.0015 0.579933 45.8971 0 43.7527 0C41.6083 0 39.5037 0.579933 37.6619 1.67838L6.08767 20.4206C4.22075 21.5468 2.67825 23.1386 1.61116 25.0401C0.544065 26.9413 -0.0110436 29.0873 0.000166478 31.2675V68.7461C-0.00995968 70.9253 0.545663 73.0699 1.6127 74.9702C2.67975 76.8704 4.22167 78.461 6.08767 79.5868L37.6557 98.3228C39.4977 99.4204 41.6019 100 43.7461 100C45.8903 100 47.9947 99.4204 49.8365 98.3228L81.4046 79.5868C83.2728 78.4612 84.8166 76.8698 85.8848 74.9684C86.953 73.0667 87.509 70.9203 87.4984 68.7395V31.2675C87.5096 29.0873 86.9546 26.9415 85.8876 25.0401C84.8206 23.1386 83.2782 21.5468 81.4114 20.4206ZM38.7619 96.4074L7.19393 77.6716C5.66025 76.7422 4.39319 75.4316 3.51593 73.8676C2.63867 72.3035 2.18108 70.5389 2.18766 68.7457V31.2679C2.18054 29.4745 2.63791 27.7099 3.51521 26.1459C4.39253 24.5816 5.65989 23.2714 7.19393 22.3424L38.7619 3.59987C40.2701 2.70013 41.9935 2.22508 43.7495 2.22508C45.5055 2.22508 47.2289 2.70013 48.7369 3.59987L80.2796 22.342C81.5644 23.1202 82.6638 24.1692 83.5012 25.4161C84.3386 26.6629 84.8938 28.0773 85.1282 29.5609C84.0784 27.3297 81.7206 26.7163 78.971 28.2969L49.1287 46.7797C45.4057 48.9481 42.6623 51.3945 42.6561 55.8823V92.6844C42.6561 95.3708 43.7369 97.109 45.4057 97.6212C44.8593 97.7214 44.3051 97.7742 43.7495 97.7794C41.9939 97.778 40.2713 97.3042 38.7619 96.4074Z" fill="#2F3A3E"/>
<path d="M73.05 72.2897L65.2038 76.9823C65.101 77.0237 65.0124 77.0939 64.9486 77.1847C64.8848 77.2753 64.8486 77.3825 64.8444 77.4933V79.5557C64.8444 79.8081 65.0144 79.9089 65.2226 79.7889L73.189 74.9451C73.2844 74.8735 73.3576 74.7761 73.4 74.6645C73.4424 74.5527 73.4522 74.4313 73.4284 74.3143V72.5041C73.4222 72.2705 73.2394 72.1701 73.05 72.2897Z" fill="#3AB14A"/>
<path d="M56.3528 55.0125C56.6052 54.8863 56.8134 55.0125 56.8196 55.3719L56.8446 58.1095C57.788 57.6807 58.8408 57.5529 59.8594 57.7435C60.0552 57.7943 60.1368 58.0591 60.0614 58.3743L59.4622 60.7775C59.4168 60.9587 59.323 61.1243 59.191 61.2567C59.1446 61.3023 59.0914 61.3405 59.0332 61.3699C58.962 61.4087 58.8798 61.4221 58.8 61.4083C57.8068 61.1881 56.7668 61.3549 55.8922 61.8747C55.2656 62.1569 54.7312 62.6105 54.3508 63.1829C53.9704 63.7553 53.7592 64.4235 53.7414 65.1107C53.7414 66.3719 54.3724 66.7189 56.5734 66.7567C59.4812 66.8075 60.7426 68.0751 60.7742 71.0079C60.74 72.5205 60.377 74.0075 59.7104 75.3657C59.0438 76.7239 58.0896 77.9207 56.9142 78.8731L56.9648 81.5599C56.9626 81.7241 56.9194 81.8853 56.8388 82.0287C56.7584 82.1719 56.6432 82.2927 56.504 82.3801L54.9148 83.2943C54.6626 83.4203 54.454 83.2943 54.448 82.9411V80.2985C53.0856 80.8661 51.7044 80.9985 50.8212 80.6453C50.657 80.5821 50.5816 80.3363 50.6508 80.0525L51.225 77.6243C51.2686 77.4321 51.3672 77.2567 51.5086 77.1195C51.5536 77.0767 51.6048 77.0403 51.6602 77.0121C51.7008 76.9939 51.745 76.9845 51.7894 76.9845C51.834 76.9845 51.8782 76.9939 51.9188 77.0121C53.043 77.3169 54.2422 77.1653 55.2552 76.5899C55.9724 76.2441 56.5812 75.7087 57.016 75.0417C57.4508 74.3745 57.6948 73.6013 57.7216 72.8055C57.7216 71.4431 56.9708 70.8755 55.1984 70.8625C52.909 70.8625 50.7832 70.4211 50.7392 67.0781C50.7652 65.6359 51.11 64.2171 51.749 62.9239C52.388 61.6305 53.3054 60.4947 54.4352 59.5977L54.322 56.8477C54.3214 56.6813 54.3636 56.5175 54.444 56.3721C54.5246 56.2265 54.641 56.1037 54.782 56.0157L56.3528 55.0125Z" fill="white"/>
</svg>
