<svg width="71" height="100" viewBox="0 0 71 100" fill="none" xmlns="http://www.w3.org/2000/svg">
<path d="M70.8465 19.6523L64.3922 91.9568L35.3799 100L6.44746 91.9682L0 19.6523H70.8465Z" fill="#264DE4"/>
<path d="M58.8666 87.3527L64.3822 25.5652H35.4232V93.8521L58.8666 87.3527Z" fill="#2965F1"/>
<path d="M14.7807 52.3862L15.5756 61.2554H35.4232V52.3862H14.7807Z" fill="#EBEBEB"/>
<path d="M35.4233 34.4346H35.3926H13.1834L13.9897 43.3039H35.4233V34.4346Z" fill="#EBEBEB"/>
<path d="M35.4232 84.6481V75.4204L35.3844 75.4308L25.5066 72.7636L24.8752 65.6899H20.0754H15.9719L17.2144 79.6159L35.3824 84.6595L35.4232 84.6481Z" fill="#EBEBEB"/>
<path d="M16.6732 0H27.4154V4.49219H21.1654V8.98438H27.4154V13.4766H16.6732V0Z" fill="black"/>
<path d="M29.5639 0H40.3061V3.90625H34.0561V4.6875H40.3061V13.6719H29.5639V9.57031H35.8139V8.78906H29.5639V0Z" fill="black"/>
<path d="M42.4545 0H53.1967V3.90625H46.9467V4.6875H53.1967V13.6719H42.4545V9.57031H48.7045V8.78906H42.4545V0Z" fill="black"/>
<path d="M46.3141 61.2553L45.2846 72.758L35.3926 75.4279V84.6553L53.575 79.616L53.7084 78.1176L55.7926 54.7678L56.009 52.3861L57.6102 34.4346H35.3926V43.3039H47.8902L47.0832 52.3861H35.3926V61.2553H46.3141Z" fill="white"/>
</svg>
