<svg width="67" height="100" viewBox="0 0 67 100" fill="none" xmlns="http://www.w3.org/2000/svg">
<path d="M16.8334 100C26.0334 100 33.5 92.5334 33.5 83.3334V66.6667H16.8334C7.63335 66.6667 0.166687 74.1334 0.166687 83.3334C0.166687 92.5334 7.63335 100 16.8334 100Z" fill="#0ACF83"/>
<path d="M0.166687 49.9999C0.166687 40.7999 7.63335 33.3333 16.8334 33.3333H33.5V66.6666H16.8334C7.63335 66.6666 0.166687 59.1999 0.166687 49.9999Z" fill="#A259FF"/>
<path d="M0.166687 16.6667C0.166687 7.46667 7.63335 0 16.8334 0H33.5V33.3333H16.8334C7.63335 33.3333 0.166687 25.8667 0.166687 16.6667Z" fill="#F24E1E"/>
<path d="M33.5 0H50.1667C59.3667 0 66.8333 7.46667 66.8333 16.6667C66.8333 25.8667 59.3667 33.3333 50.1667 33.3333H33.5V0Z" fill="#FF7262"/>
<path d="M66.8333 49.9999C66.8333 59.1999 59.3667 66.6666 50.1667 66.6666C40.9667 66.6666 33.5 59.1999 33.5 49.9999C33.5 40.7999 40.9667 33.3333 50.1667 33.3333C59.3667 33.3333 66.8333 40.7999 66.8333 49.9999Z" fill="#1ABCFE"/>
</svg>
