<svg width="101" height="101" viewBox="0 0 101 101" fill="none" xmlns="http://www.w3.org/2000/svg">
<path d="M47.6024 36.442V45.813L25.0792 23.3378L32.5596 15.871L43.9222 27.2204C43.6172 28.04 43.4626 28.9074 43.4658 29.7816C43.4616 31.167 43.847 32.5258 44.5784 33.7034C45.3096 34.8808 46.3574 35.8298 47.6024 36.442ZM54.5068 37.7936L58.0076 41.288L54.5068 44.79V37.7936ZM75.9306 23.4124L62.3986 36.905L57.843 32.3726C58.2582 31.26 58.3968 30.0634 58.247 28.8856C58.0188 27.1566 57.1914 25.5618 55.9084 24.3778C54.6254 23.194 52.9678 22.4958 51.223 22.4044C50.2324 22.3524 49.2418 22.5048 48.3132 22.8524L36.943 11.4655L46.5776 1.87804C47.089 1.36646 47.6966 0.960576 48.3652 0.683642C49.034 0.406708 49.751 0.26416 50.475 0.26416C51.199 0.26416 51.9158 0.406708 52.5846 0.683642C53.2534 0.960576 53.8608 1.36646 54.3722 1.87804L75.9306 23.4124Z" fill="#FF8080"/>
<path d="M43.129 54.4225L22.663 74.8517L2.35388 54.7733C1.20502 53.5805 0.568963 51.9865 0.581543 50.3319C0.594121 48.6771 1.25434 47.0931 2.4212 45.9177L23.3662 25.0107L43.129 44.8051C44.4044 46.0817 45.1206 47.8109 45.1206 49.6137C45.1206 51.4167 44.4044 53.1459 43.129 54.4225Z" fill="#80B3FF"/>
<path d="M54.544 56.8568V65.4362C55.7904 66.1764 56.779 67.281 57.3756 68.6004C57.9724 69.92 58.1486 71.3906 57.8802 72.8134C57.6344 74.2014 56.972 75.4822 55.981 76.4862C54.9898 77.4902 53.7166 78.1702 52.3298 78.436C50.6474 78.803 48.8888 78.5456 47.3826 77.712C45.8766 76.8784 44.7262 75.5256 44.1468 73.9068C43.5674 72.288 43.5986 70.514 44.2346 68.9164C44.8706 67.3188 46.068 66.0074 47.6024 65.227V55.7442C47.5898 55.6092 47.5406 55.4802 47.4602 55.371C47.3796 55.262 47.2708 55.1766 47.1454 55.1246C47.0202 55.0724 46.8832 55.0552 46.7488 55.0748C46.6146 55.0946 46.4882 55.1504 46.3832 55.2364L24.937 76.6364L47.004 98.6634C48.0322 99.6886 49.4256 100.264 50.8786 100.264C52.3318 100.264 53.7254 99.6886 54.7534 98.6634L75.5712 77.9208L54.544 56.8568Z" fill="#FFE680"/>
<path d="M98.3343 55.8559L78.4814 75.6805L57.1026 54.3401C55.903 53.1417 55.2292 51.5169 55.2292 49.8227C55.2292 48.1287 55.903 46.5037 57.1026 45.3053L59.5636 42.8263L65.0168 48.2547C64.4322 49.8391 64.4073 51.5751 64.9465 53.1755C65.4855 54.7759 66.5561 56.1443 67.9809 57.0543C69.4057 57.9641 71.0992 58.3609 72.7806 58.1787C74.4622 57.9965 76.0311 57.2463 77.2271 56.0525C78.4231 54.8585 79.1747 53.2927 79.3571 51.6141C79.5397 49.9357 79.1422 48.2451 78.2306 46.8229C77.319 45.4007 75.9483 44.3321 74.3449 43.7939C72.7417 43.2559 71.0024 43.2807 69.4152 43.8641L63.9921 38.4581L77.8605 24.6221L98.3343 45.0663C99.0465 45.7735 99.6117 46.6141 99.9973 47.5399C100.383 48.4657 100.581 49.4585 100.581 50.4611C100.581 51.4639 100.383 52.4567 99.9973 53.3825C99.6117 54.3083 99.0465 55.1489 98.3343 55.8559Z" fill="#8DD35F"/>
</svg>
