<svg width="101" height="101" viewBox="0 0 101 101" fill="none" xmlns="http://www.w3.org/2000/svg">
<path d="M98.1187 45.6356L54.4533 1.97561C51.9409 -0.539069 47.8627 -0.539069 45.3472 1.97561L36.2806 11.0431L47.7813 22.5438C50.4549 21.6411 53.5194 22.2464 55.6497 24.377C57.7909 26.5209 58.3918 29.6116 57.4665 32.2942L68.5511 43.3788C71.2329 42.4547 74.327 43.0517 76.4683 45.1969C79.4621 48.1898 79.4621 53.0394 76.4683 56.0331C73.4741 59.0278 68.6244 59.0278 65.6286 56.0331C63.3775 53.7803 62.8207 50.4728 63.9609 47.6993L53.6232 37.3616L53.6223 64.565C54.3522 64.9263 55.041 65.4086 55.6492 66.0141C58.6421 69.0067 58.6421 73.8555 55.6492 76.853C52.6554 79.8455 47.8036 79.8455 44.813 76.853C41.8196 73.8557 41.8196 69.0069 44.813 66.0141C45.5527 65.2757 46.4087 64.7168 47.322 64.3421V36.8859C46.4083 36.5129 45.5533 35.9581 44.8124 35.2138C42.5451 32.9482 41.9991 29.6205 43.1619 26.8363L31.8244 15.4971L1.88672 45.4339C-0.628744 47.9505 -0.628744 52.0287 1.88672 54.5435L45.5494 98.2036C48.0632 100.718 52.14 100.718 54.6573 98.2036L98.1181 54.7498C100.633 52.2339 100.633 48.1545 98.1181 45.6393" fill="#F05133"/>
</svg>
