<svg width="72" height="100" viewBox="0 0 72 100" fill="none" xmlns="http://www.w3.org/2000/svg">
<path d="M7.20157 0H11.6938V4.45312H15.8344V0H20.3266V13.4766H15.8344V8.98437H11.7328V13.4766H7.20157M26.2641 4.49219H22.2992V0H34.7406V4.49219H30.7562V13.4766H26.2641M36.7133 0H41.4203L44.3109 4.74609L47.2016 0H51.9086V13.4766H47.4164V6.79687L44.2719 11.6406L41.1273 6.79687V13.4766H36.7133M54.1352 0H58.6273V9.02344H64.9945V13.4766H54.1352" fill="black"/>
<path d="M7.04532 91.9922L0.600006 19.6484H71.4594L65.014 91.9531L35.9711 100" fill="#E44D26"/>
<path d="M36.0297 93.8476V25.5859H64.9945L59.4672 87.3047" fill="#F16529"/>
<path d="M13.7641 34.4336H36.0297V43.3008H23.4906L24.3109 52.3828H36.0297V61.2305H16.1859M16.5766 65.6836H25.4828L26.1078 72.7734L36.0297 75.4297V84.6875L17.8266 79.6094" fill="#EBEBEB"/>
<path d="M58.2172 34.4336H35.9906V43.3008H57.3968M56.5961 52.3828H35.9906V61.25H46.9281L45.8929 72.7734L35.9906 75.4297V84.6484L54.1547 79.6094" fill="white"/>
</svg>
