<svg width="72" height="100" viewBox="0 0 72 100" fill="none" xmlns="http://www.w3.org/2000/svg">
<path d="M0.238373 19.541L0.249543 20.4347C0.255699 20.9262 1.67968 37.1997 3.41399 56.598L6.56726 91.8677L20.7397 95.8357C28.5346 98.0182 35.073 99.8148 35.2696 99.8286C35.4662 99.8423 42.0911 98.0638 49.9915 95.8762C62.6583 92.369 64.3683 91.8407 64.459 91.4066C64.5853 90.8017 70.7883 20.8259 70.7819 20.0772L70.7774 19.541H35.5077H0.238373Z" fill="white"/>
<path d="M20.8519 96.0731L6.55347 92.0764L6.36661 91.0188C6.20052 90.0787 0 20.8251 0 19.91C0 19.5789 3.62031 19.5413 35.5079 19.5413C69.1671 19.5413 71.0156 19.563 71.013 19.9583C71.0018 21.6658 64.5838 91.8365 64.426 91.9761C64.2267 92.1526 36.5518 99.8627 35.627 99.9994C35.3649 100.038 28.7161 98.2713 20.8519 96.0731ZM44.5238 81.9511C49.3297 80.6256 53.3312 79.4728 53.4159 79.3892C53.5007 79.3057 54.0631 73.6074 54.6656 66.7262C55.2682 59.8451 55.8221 53.7593 55.8964 53.2022L56.0316 52.1894H45.6506H35.2696V56.5981V61.0068H40.8743H46.4791L46.3676 61.543C46.3063 61.8379 46.0679 64.3722 45.8379 67.1748C45.5942 70.1444 45.3053 72.3848 45.1454 72.5447C44.9945 72.6956 42.7107 73.3949 40.0703 74.0986L35.2696 75.3782V79.8696C35.2696 82.9352 35.3515 84.361 35.5277 84.361C35.6697 84.361 39.718 83.2765 44.5238 81.9511ZM55.8949 46.6488C55.7374 45.4811 54.3342 29.819 54.3342 29.2284C54.3342 28.8697 53.5092 28.8353 44.921 28.8353H35.5079V33.4454V38.0555L39.7378 38.2186C42.0643 38.3082 44.5127 38.4447 45.1787 38.5218L46.3897 38.6621L46.6836 42.2682C46.8453 44.2515 47.038 46.2764 47.1117 46.7679L47.2459 47.6616H51.6387H56.0316L55.8949 46.6488Z" fill="#EAEBEC"/>
<path d="M20.7397 95.8357L6.56727 91.8677L3.41398 56.5981C1.67967 37.1999 0.255656 20.9264 0.2495 20.4349L0.238312 19.5413H35.5079H70.7775L70.782 20.0775C70.7884 20.8261 64.5853 90.802 64.4589 91.4068C64.3682 91.841 62.6583 92.3693 49.9916 95.8765C42.0911 98.0641 35.4662 99.8426 35.2696 99.8288C35.073 99.815 28.5345 98.0182 20.7397 95.8357ZM44.5346 82.1196C49.4338 80.7575 53.5117 79.5306 53.5967 79.3931C53.6817 79.2556 54.2669 73.2662 54.8973 66.0833C55.5276 58.9004 56.095 52.8359 56.1581 52.6065C56.2665 52.2125 55.4329 52.1894 41.0529 52.1894H25.8329L26.4809 45.3381C26.8374 41.5698 27.1375 38.477 27.148 38.4651C27.1585 38.4531 29.3923 38.3819 32.112 38.3067C36.5715 38.1835 45.7679 38.5392 46.0755 38.8469C46.1905 38.9618 46.9467 46.3805 46.9467 47.3932C46.9467 47.8925 47.014 47.8999 51.5644 47.8999H56.1821L56.0733 46.8871C56.0135 46.3301 55.6223 42.0137 55.2041 37.2952L54.4436 28.7161L36.635 28.655C22.4672 28.6064 18.8259 28.6551 18.8244 28.8933C18.8231 29.058 18.7195 30.1043 18.5936 31.2183C18.2891 33.9142 15.9666 59.9623 15.9666 60.6817V61.2451H31.1201H46.2736L46.1385 62.1388C46.0642 62.6303 45.8287 65.1236 45.6151 67.6795C45.4015 70.2353 45.1579 72.3925 45.0739 72.4732C44.8519 72.6863 35.9373 75.0678 35.3814 75.0625C35.1233 75.06 32.821 74.4856 30.2651 73.786L25.6181 72.514L25.4477 70.5137C25.354 69.4136 25.2114 67.8433 25.1308 67.0241L24.9844 65.5347H20.4755H15.9666L15.9766 66.4283C15.9953 68.0996 17.079 79.3568 17.2364 79.5142C17.4184 79.6962 34.7363 84.5642 35.2696 84.5833C35.4662 84.5903 39.6354 83.4816 44.5346 82.1196Z" fill="#F0BE25"/>
<path d="M20.7397 95.8357L6.56727 91.8677L3.41398 56.5981C1.67967 37.1999 0.255656 20.9264 0.2495 20.4349L0.238312 19.5413H35.5079H70.7775L70.782 20.0775C70.7884 20.8261 64.5853 90.802 64.4589 91.4068C64.3682 91.841 62.6583 92.3693 49.9916 95.8765C42.0911 98.0641 35.4662 99.8426 35.2696 99.8288C35.073 99.815 28.5345 98.0182 20.7397 95.8357ZM47.1694 90.5273C53.4038 88.807 58.6217 87.2789 58.7648 87.1314C58.9876 86.9019 64.372 27.8903 64.3503 25.916L64.3431 25.2606H49.9255H35.5079V26.9288V28.597H27.1671C20.6544 28.597 18.8259 28.6622 18.8244 28.8948C18.8231 29.0587 18.7195 30.1043 18.5936 31.2183C18.2891 33.9142 15.9666 59.9623 15.9666 60.6817V61.2451H25.7373H35.5079V68.1561C35.5079 73.5283 35.4416 75.066 35.21 75.0625C35.0462 75.06 32.821 74.4856 30.2651 73.786L25.6181 72.514L25.4477 70.5137C25.354 69.4136 25.2114 67.8433 25.1308 67.0241L24.9844 65.5347H20.4755H15.9666L15.9766 66.4283C16.0052 68.9845 17.1109 79.4184 17.3703 79.5786C17.5279 79.6761 21.6733 80.8672 26.5824 82.2256L35.5079 84.6955V89.1753C35.5079 91.6391 35.5813 93.655 35.6711 93.655C35.7608 93.655 40.9351 92.2475 47.1694 90.5273ZM26.4558 45.4021C26.7984 41.6691 27.1254 38.5726 27.1825 38.5209C27.2396 38.4693 29.1361 38.3759 31.3971 38.3133L35.5079 38.1996V45.1945V52.1894H30.6704H25.8329L26.4558 45.4021Z" fill="#E4A126"/>
<path d="M22.6393 11.0813V8.81739H25.8564H29.0736V4.4087V0H31.3375H33.6014V6.67262V13.3452H28.1203H22.6393V11.0813ZM35.7462 11.5579V9.77063H38.725C40.3634 9.77063 41.7039 9.71006 41.7039 9.63604C41.7039 9.56201 40.3634 8.04865 38.725 6.273L35.7462 3.04454V1.52227V0H41.9422H48.1382V1.77997V3.55995L45.2294 3.62686L42.3207 3.69377L45.3486 6.95459L48.3765 10.2154V11.7803V13.3452H42.0613H35.7462V11.5579Z" fill="#0E0E0F"/>
</svg>
