<svg width="101" height="53" viewBox="0 0 101 53" fill="none" xmlns="http://www.w3.org/2000/svg">
<path d="M0.984375 47.6705H4.27884V34.661L9.37912 46.0022C9.98089 47.375 10.8046 47.8606 12.4201 47.8606C14.0357 47.8606 14.8276 47.375 15.4297 46.0022L20.5297 34.661V47.6705H23.8244V34.6823C23.8244 33.4152 23.3174 32.8026 22.2722 32.486C19.7696 31.7046 18.0906 32.3803 17.3302 34.0699L12.3251 45.2629L7.47837 34.0699C6.74981 32.3803 5.03919 31.7046 2.53666 32.486C1.4912 32.8026 0.984375 33.4152 0.984375 34.6823V47.6705Z" fill="#00618A"/>
<path d="M26.5637 37.0813H29.8572V44.2486C29.8264 44.638 29.9822 45.5518 31.7869 45.5803C32.7077 45.5946 38.8932 45.5803 38.9509 45.5803V37.0464H42.2521C42.2672 37.0464 42.2487 48.6842 42.249 48.7337C42.2672 51.6039 38.6877 52.2273 37.0378 52.2755H26.6353V50.0593C26.6535 50.0593 37.0301 50.0613 37.0563 50.0587C39.1766 49.8348 38.9263 48.7809 38.926 48.4261V47.5621H31.9237C28.6658 47.5321 26.5912 46.1103 26.5655 44.4746C26.5632 44.323 26.6358 37.1529 26.5637 37.0813Z" fill="#00618A"/>
<path d="M44.791 47.6704H54.2626C55.3713 47.6704 56.4486 47.4382 57.3039 47.0367C58.7292 46.3823 59.4263 45.4954 59.4263 44.3335V41.9261C59.4263 40.9756 58.6343 40.0885 57.082 39.4974C56.2582 39.1804 55.2446 39.0116 54.2626 39.0116H50.271C48.9408 39.0116 48.3072 38.6103 48.1489 37.7235C48.1171 37.6178 48.1171 37.5331 48.1171 37.4277V35.9284C48.1171 35.8438 48.1171 35.7591 48.1489 35.6537C48.3072 34.9779 48.6558 34.7876 49.8277 34.6821C49.9229 34.6821 50.0494 34.6608 50.1445 34.6608H59.553V32.4648H50.3028C48.9724 32.4648 48.2754 32.5492 47.642 32.7391C45.6779 33.3517 44.8226 34.3232 44.8226 36.0128V37.9346C44.8226 39.413 46.5016 40.6801 49.3208 40.9756C49.6379 40.9967 49.9544 41.0177 50.271 41.0177H53.6923C53.8193 41.0177 53.946 41.0177 54.0409 41.039C55.0863 41.1237 55.5296 41.3135 55.8467 41.6937C56.0366 41.8836 56.0999 42.0739 56.0999 42.285V44.2068C56.0999 44.4392 55.9416 44.735 55.6251 44.9882C55.3398 45.2417 54.8647 45.4108 54.231 45.4531C54.1043 45.4531 54.0094 45.4741 53.8826 45.4741H44.791V47.6704Z" fill="#E48E00"/>
<path d="M79.9783 43.8479C79.9783 46.1075 81.6571 47.3748 85.0468 47.6283C85.3634 47.6493 85.6804 47.6704 85.997 47.6704H94.582V45.4741H85.9337C84.0014 45.4741 83.2728 44.9882 83.2728 43.8269V32.4648H79.9783V43.8479Z" fill="#E48E00"/>
<path d="M61.5288 43.963V36.1328C61.5288 34.1435 62.9257 32.937 65.6871 32.556C65.9729 32.514 66.2905 32.4927 66.576 32.4927H72.8295C73.1469 32.4927 73.4329 32.514 73.7502 32.556C76.5119 32.937 77.9085 34.1435 77.9085 36.1328V43.963C77.9085 45.5769 77.3154 46.4406 75.9483 47.0035L79.1936 49.9327H75.3683L72.7428 47.5628L70.0996 47.7303H66.576C65.9729 47.7303 65.3382 47.6454 64.6396 47.455C62.5447 46.8837 61.5288 45.7831 61.5288 43.963ZM65.0847 43.7726C65.0847 43.8786 65.1163 43.9842 65.1481 44.1112C65.3385 45.0212 66.1956 45.5291 67.497 45.5291H70.4901L67.7407 43.0471H71.566L73.9639 45.2118C74.4057 44.9763 74.6966 44.6161 74.7982 44.1536C74.8298 44.0479 74.8298 43.9419 74.8298 43.8362V36.3234C74.8298 36.2387 74.8298 36.1328 74.7982 36.0268C74.6076 35.1805 73.7505 34.6938 72.4809 34.6938H67.497C66.037 34.6938 65.0847 35.3288 65.0847 36.3234V43.7726Z" fill="#E48E00"/>
<path d="M97.4805 28.8213C95.4554 28.7664 93.9084 28.9547 92.5859 29.5124C92.2101 29.671 91.6108 29.6751 91.5495 30.1461C91.756 30.3626 91.7881 30.6859 91.9523 30.9522C92.2681 31.4632 92.8012 32.1479 93.2768 32.5071C93.7965 32.8993 94.3322 33.319 94.8894 33.6587C95.8804 34.2631 96.9869 34.6081 97.9412 35.2136C98.5036 35.5704 99.0623 36.0199 99.6111 36.4227C99.8822 36.6217 100.065 36.9314 100.417 37.0561C100.417 37.0371 100.417 37.0178 100.417 36.9986C100.232 36.7628 100.184 36.4386 100.014 36.1923C99.7648 35.9429 99.5151 35.6933 99.2655 35.4437C98.5336 34.4722 97.6044 33.6189 96.6167 32.9101C95.8291 32.3447 94.0662 31.5809 93.7375 30.6643C93.7183 30.6451 93.6993 30.6258 93.6798 30.6066C94.2383 30.5437 94.8922 30.3416 95.4076 30.2036C96.2735 29.9714 97.0472 30.0314 97.9412 29.8005C98.3443 29.6853 98.7473 29.5699 99.1506 29.455C99.1506 29.378 99.1506 29.3016 99.1506 29.2246C98.6986 28.7608 98.3763 28.1471 97.8835 27.7274C96.5941 26.6294 95.1867 25.5324 93.7375 24.6177C92.9338 24.1104 91.9405 23.7807 91.0887 23.3508C90.8022 23.2062 90.2988 23.131 90.1095 22.89C89.6621 22.3196 89.4184 21.5966 89.0733 20.9321C88.3504 19.5402 87.6405 18.02 87.0002 16.5556C86.5633 15.557 86.2781 14.5722 85.7334 13.6763C83.1187 9.37746 80.3042 6.78271 75.9443 4.23231C75.0166 3.68993 73.8996 3.47572 72.7193 3.19588C72.0861 3.15755 71.4525 3.11897 70.8191 3.08064C70.4324 2.91905 70.0302 2.44603 69.6674 2.21681C68.2231 1.30437 64.5184 -0.680324 63.4486 1.92895C62.7731 3.57592 64.4581 5.18309 65.0607 6.01759C65.4837 6.60308 66.0253 7.25947 66.3275 7.91786C66.5263 8.35054 66.5607 8.78446 66.7308 9.24241C67.1495 10.3703 67.5135 11.5974 68.0551 12.6399C68.3288 13.1672 68.6305 13.7229 68.9766 14.1946C69.1887 14.484 69.5522 14.6115 69.6097 15.0585C69.2541 15.556 69.2339 16.3284 69.034 16.9588C68.1341 19.7965 68.4735 23.3237 69.7826 25.4239C70.1844 26.0686 71.1305 27.4514 72.4314 26.9211C73.5694 26.4575 73.3152 25.0211 73.6408 23.7539C73.7144 23.4665 73.6692 23.2553 73.8134 23.0629C73.8134 23.0819 73.8134 23.1012 73.8134 23.1205C74.159 23.8115 74.5045 24.5024 74.8501 25.1933C75.6172 26.4288 76.9786 27.72 78.1323 28.5912C78.7306 29.043 79.2016 29.8241 79.9751 30.0884C79.9751 30.0691 79.9751 30.0502 79.9751 30.0307C79.9556 30.0307 79.9366 30.0307 79.9173 30.0307C79.7675 29.7969 79.533 29.7002 79.3417 29.5124C78.8909 29.0707 78.3899 28.5214 78.0171 28.0153C76.9679 26.5907 76.0405 25.0314 75.1957 23.4084C74.7921 22.6335 74.4414 21.7784 74.1013 20.9898C73.9702 20.6856 73.9717 20.2259 73.6985 20.0683C73.326 20.6463 72.7772 21.1135 72.4891 21.796C72.0284 22.8868 71.9689 24.2171 71.7983 25.5966C71.6972 25.6327 71.7421 25.6079 71.6828 25.654C70.8809 25.4606 70.5989 24.635 70.3011 23.9267C69.5471 22.1355 69.407 19.2511 70.0705 17.1892C70.2421 16.6559 71.0179 14.9756 70.7039 14.4828C70.554 13.991 70.0594 13.7066 69.7826 13.3308C69.4401 12.8663 69.0982 12.2548 68.8611 11.7184C68.2441 10.3217 67.956 8.75388 67.3065 7.34215C66.9961 6.66721 66.4709 5.98427 66.0397 5.38427C65.5622 4.71962 65.0276 4.23006 64.6577 3.42613C64.5261 3.14052 64.3472 2.68328 64.5425 2.38967C64.6046 2.19149 64.692 2.10883 64.888 2.04418C65.2221 1.78664 66.1523 2.12987 66.5002 2.27443C67.4237 2.65799 68.1944 3.02325 68.9766 3.54137C69.3521 3.79039 69.7318 4.2719 70.1856 4.4052C70.3583 4.4052 70.5312 4.4052 70.7039 4.4052C71.5145 4.59158 72.4227 4.46307 73.18 4.69304C74.5187 5.09992 75.7182 5.73276 76.8078 6.4207C80.1269 8.5164 82.8406 11.4997 84.697 15.0585C84.9956 15.6314 85.1249 16.1784 85.3878 16.7861C85.9186 18.0117 86.5872 19.2729 87.1152 20.4714C87.6421 21.6672 88.1557 22.874 88.9004 23.8691C89.2922 24.3922 90.8045 24.6728 91.4918 24.9632C91.9736 25.1669 92.7629 25.379 93.2193 25.654C94.0911 26.1799 94.9356 26.8059 95.7532 27.3819C96.1619 27.6697 97.4179 28.301 97.4805 28.8213Z" fill="#00618A"/>
<path fill-rule="evenodd" clip-rule="evenodd" d="M71.7405 6.88161C71.3183 6.87383 71.0197 6.92771 70.7039 6.99661C70.7039 7.01588 70.7039 7.03517 70.7039 7.05423C70.7231 7.05423 70.7423 7.05423 70.7616 7.05423C70.963 7.46809 71.3185 7.73441 71.5676 8.09092C71.7595 8.49403 71.9514 8.89713 72.1436 9.29998C72.1626 9.28092 72.1821 9.26166 72.201 9.24259C72.5576 8.99131 72.7211 8.58923 72.7193 7.97568C72.5764 7.82535 72.5553 7.63671 72.4314 7.45731C72.2667 7.21832 71.9481 7.08253 71.7405 6.88161Z" fill="#00618A"/>
<path fill-rule="evenodd" clip-rule="evenodd" d="M96.1284 45.4115C96.1284 46.862 97.2744 47.8395 98.5563 47.8395C99.8383 47.8395 100.984 46.862 100.984 45.4115C100.984 43.9613 99.8383 42.9839 98.5563 42.9839C97.2744 42.9839 96.1284 43.9613 96.1284 45.4115ZM100.44 45.4115C100.44 46.5121 99.5989 47.3346 98.5563 47.3346C97.5012 47.3346 96.6723 46.5121 96.6723 45.4115C96.6723 44.311 97.5012 43.4885 98.5563 43.4885C99.5989 43.4885 100.44 44.311 100.44 45.4115ZM99.2105 46.7971H99.7541L98.9581 45.5801C99.3852 45.5347 99.7087 45.3274 99.7087 44.8225C99.7087 44.2592 99.3529 44.0262 98.6667 44.0262H97.5853V46.7971H98.0515V45.5993H98.4853L99.2105 46.7971ZM98.0515 45.2109V44.4146H98.5887C98.8673 44.4146 99.2039 44.4664 99.2039 44.7902C99.2039 45.1784 98.8996 45.2109 98.5499 45.2109H98.0515Z" fill="#E48E00"/>
</svg>
