<svg width="112" height="104" viewBox="0 0 112 104" fill="none" xmlns="http://www.w3.org/2000/svg">
<path fill-rule="evenodd" clip-rule="evenodd" d="M10.5867 63.2374C14.092 64.3121 18.7896 58.1126 22.7669 57.3598C35.2206 55.0025 46.6399 53.086 52.9207 49.6796C69.5619 40.6542 75.0969 61.3381 77.3746 62.8987C80.9041 65.977 70.1006 74.3983 70.7853 81.2549C71.1654 85.0609 72.6876 86.9198 72.6876 86.9198C75.668 78.3303 85.0882 81.8538 84.5458 72.916C91.698 77.0249 93.2322 70.4805 101.531 71.7844C100.358 69.9664 98.8444 67.2585 95.5902 65.8392C92.1215 64.5148 86.2582 64.6996 84.7355 60.1945C84.4575 55.0989 84.5332 27.9159 72.4502 19.6058C70.6849 15.9861 72.5899 10.8286 76.0255 7.30495C79.1321 4.1188 83.0977 1.04202 82.032 0.597569C79.006 0.0904261 70.9623 1.53996 63.911 5.42324C60.2338 7.44835 56.9959 10.3601 54.7009 11.4498C39.6157 8.40454 24.5274 17.661 15.938 34.245C14.1013 37.7912 14.4351 41.5689 13.3808 45.8316C12.5938 49.0133 9.1052 54.9539 7.85616 58.7891C7.09185 61.136 9.38896 62.4736 10.5867 63.2374Z" fill="url(#paint0_linear_370_6683)" stroke="#204A87"/>
<path opacity="0.569231" fill-rule="evenodd" clip-rule="evenodd" d="M12.6191 62.1279C17.8739 46.9058 29.5922 44.1065 36.6324 36.8577C43.5595 29.7254 67.9297 21.8995 83.0114 44.2923C83.083 44.3987 79.8323 26.4778 71.6587 19.3581C68.3861 18.1608 57.4307 11.6154 55.2048 12.6591C36.7455 9.22875 16.058 24.347 14.5478 46.2531C14.2811 50.1219 9.6326 55.7984 9.31132 60.0283C9.13198 62.3895 11.4573 61.3963 12.6191 62.1279Z" fill="url(#paint1_linear_370_6683)"/>
<path d="M13.2885 60.3939C24.3754 52.4024 25.1991 55.5112 35.9241 52.4919C44.5984 50.0499 48.8102 49.546 52.9544 47.4765C70.4988 38.7152 76.2102 58.3539 79.0269 61.6233C82.9521 65.4042 77.5144 70.03 74.4009 76.4146C72.8019 79.6937 72.9758 82.1252 72.9758 82.1252C75.699 78.0996 84.6151 79.6902 82.1871 68.548C90.5291 75.2374 92.1968 69.667 96.8424 69.7005C95.3668 67.7655 93.7494 67.6949 92.1605 67.3037C88.9177 66.0352 84.6944 66.5002 82.5757 61.217C82.3158 56.3364 83.5746 31.7249 70.8483 21.0269C68.6616 18.2903 69.0065 13.7433 71.9359 8.56608C72.7658 7.09949 80.5124 1.17378 77.4888 3.09273C75.5855 2.7905 68.6422 5.40779 62.05 9.12717C58.6122 11.0668 57.1838 12.7703 55.0383 13.814C39.611 10.9924 25.6742 18.8461 17.5685 35.8473C16.2836 38.5423 16.0754 43.8976 15.1694 47.0405C14.4162 49.6535 10.774 56.0939 10.3165 59.0078C9.94941 61.3457 11.4361 61.4677 13.2885 60.3939Z" stroke="url(#paint2_linear_370_6683)" stroke-width="0.797634"/>
<path opacity="0.578652" fill-rule="evenodd" clip-rule="evenodd" d="M29.4256 54.6747C42.7116 53.0239 44.692 51.3939 53.0816 47.534C67.6952 40.7154 72.8221 50.3652 76.3569 54.472C76.7149 54.9555 77.4161 49.3333 73.5457 46.8514C57.9838 39.5503 77.2066 42.3914 76.1577 39.7106C74.9509 36.6263 63.3607 36.8105 61.0618 37.6011C52.799 40.4426 49.3653 42.1619 45.1653 43.023C37.4302 44.4945 35.8603 43.1371 30.9671 49.2418C26.2932 55.0729 28.0923 54.8404 29.4256 54.6747Z" fill="url(#paint3_linear_370_6683)"/>
<path fill-rule="evenodd" clip-rule="evenodd" d="M53.9722 47.9812C59.1041 50.3071 71.9058 57.7182 66.3843 59.5804C47.409 60.9003 49.9155 53.1773 44.965 52.528C42.1195 50.4859 51.2472 47.1779 53.9722 47.9812Z" fill="#729FCF" stroke="#204A87"/>
<path d="M53.7291 50.4938C56.8246 51.9835 65.7797 56.5334 64.0981 57.5535C58.707 57.4768 53.2744 56.0364 52.5744 55.434C50.7159 53.8346 49.5028 52.4029 48.3199 51.5537C48.0277 51.6024 51.7386 49.9344 53.7291 50.4938Z" stroke="url(#paint4_linear_370_6683)" stroke-linecap="round" stroke-linejoin="round"/>
<path opacity="0.488764" fill-rule="evenodd" clip-rule="evenodd" d="M39.8423 35.6887C40.3741 37.3721 36.7996 38.0576 34.371 40.408C31.4475 43.2372 29.4123 47.4959 27.987 45.8133C26.126 40.3876 33.4453 29.9181 39.8423 35.6887Z" fill="#2E3436"/>
<path opacity="0.752809" fill-rule="evenodd" clip-rule="evenodd" d="M37.8462 37.4862C38.1613 38.4834 36.0437 38.8895 34.6049 40.2819C32.873 41.958 31.6673 44.4809 30.8229 43.4842C29.7204 40.2699 34.0565 34.0675 37.8462 37.4862Z" fill="#EEEEEC"/>
<g opacity="0.1" filter="url(#filter0_f_370_6683)">
<path fill-rule="evenodd" clip-rule="evenodd" d="M107.704 95.5618C107.704 96.8715 102.241 98.1276 92.5166 99.0537C82.7925 99.9798 69.6038 100.5 55.8519 100.5C42.0999 100.5 28.9112 99.9798 19.1871 99.0537C9.46295 98.1276 4 96.8715 4 95.5618C4 94.2521 9.46295 92.996 19.1871 92.0699C28.9112 91.1438 42.0999 90.6235 55.8519 90.6235C69.6038 90.6235 82.7925 91.1438 92.5166 92.0699C102.241 92.996 107.704 94.2521 107.704 95.5618Z" fill="black"/>
</g>
<path opacity="0.588462" fill-rule="evenodd" clip-rule="evenodd" d="M36.2863 40.7522C36.2864 41.0758 36.2227 41.3963 36.0989 41.6953C35.9751 41.9944 35.7936 42.2661 35.5647 42.4949C35.3359 42.7238 35.0642 42.9053 34.7652 43.0292C34.4662 43.1531 34.1458 43.2168 33.8221 43.2168C33.4985 43.2168 33.178 43.1531 32.879 43.0292C32.58 42.9053 32.3084 42.7238 32.0795 42.4949C31.8507 42.2661 31.6692 41.9944 31.5454 41.6953C31.4216 41.3963 31.3579 41.0758 31.3579 40.7522C31.3579 40.4286 31.4216 40.1081 31.5454 39.8091C31.6692 39.5101 31.8507 39.2384 32.0795 39.0095C32.3084 38.7806 32.58 38.5991 32.879 38.4752C33.178 38.3513 33.4985 38.2876 33.8221 38.2876C34.1458 38.2876 34.4662 38.3513 34.7652 38.4752C35.0642 38.5991 35.3359 38.7806 35.5647 39.0095C35.7936 39.2384 35.9751 39.5101 36.0989 39.8091C36.2227 40.1081 36.2864 40.4286 36.2863 40.7522Z" fill="#555753"/>
<defs>
<filter id="filter0_f_370_6683" x="0.550004" y="87.1735" width="110.604" height="16.7765" filterUnits="userSpaceOnUse" color-interpolation-filters="sRGB">
<feFlood flood-opacity="0" result="BackgroundImageFix"/>
<feBlend mode="normal" in="SourceGraphic" in2="BackgroundImageFix" result="shape"/>
<feGaussianBlur stdDeviation="1.725" result="effect1_foregroundBlur_370_6683"/>
</filter>
<linearGradient id="paint0_linear_370_6683" x1="77.5876" y1="62.1441" x2="85.0006" y2="73.7623" gradientUnits="userSpaceOnUse">
<stop stop-color="#729FCF"/>
<stop offset="1" stop-color="#2B5582"/>
</linearGradient>
<linearGradient id="paint1_linear_370_6683" x1="9.30151" y1="37.1507" x2="83.0125" y2="37.1507" gradientUnits="userSpaceOnUse">
<stop stop-color="#204A87"/>
<stop offset="1" stop-color="#204A87" stop-opacity="0"/>
</linearGradient>
<linearGradient id="paint2_linear_370_6683" x1="10.0559" y1="43.5955" x2="88.2361" y2="134.174" gradientUnits="userSpaceOnUse">
<stop stop-color="white" stop-opacity="0.450382"/>
<stop offset="1" stop-color="white" stop-opacity="0.312977"/>
</linearGradient>
<linearGradient id="paint3_linear_370_6683" x1="41.233" y1="68.1079" x2="36.6806" y2="39.2492" gradientUnits="userSpaceOnUse">
<stop stop-color="#788492"/>
<stop offset="1" stop-color="#FAFAFA"/>
</linearGradient>
<linearGradient id="paint4_linear_370_6683" x1="48.9736" y1="53.6719" x2="66.8424" y2="58.7254" gradientUnits="userSpaceOnUse">
<stop stop-color="white" stop-opacity="0.450382"/>
<stop offset="1" stop-color="white" stop-opacity="0.312977"/>
</linearGradient>
</defs>
</svg>
