<svg width="101" height="100" viewBox="0 0 101 100" fill="none" xmlns="http://www.w3.org/2000/svg">
<path fill-rule="evenodd" clip-rule="evenodd" d="M28.6035 4.8666C39.5814 -1.28659 60.5579 -1.28659 71.5358 4.8666C72.0469 5.32821 72.8166 5.5318 73.4247 5.89698C74.6305 6.46572 75.6226 7.2482 76.8592 7.78604C77.3467 8.38634 78.1446 8.67589 78.7484 9.15995C80.7836 10.5021 82.4861 12.1769 84.4154 13.625C85.6411 14.8606 86.6872 16.2761 88.0217 17.4029C88.7575 18.6707 89.8097 19.6217 90.5976 20.8376C91.309 21.7864 91.8315 22.9235 92.6584 23.757C92.9787 24.7532 93.6063 25.4423 94.032 26.333C94.5105 27.1711 94.8315 28.1667 95.406 28.9089C97.5804 34.0045 99.3582 39.4964 99.871 46.2536C99.9786 46.7756 99.6511 47.7327 100.043 47.9707C100.043 49.2874 100.043 50.604 100.043 51.9207C99.6511 52.1587 99.9786 53.1161 99.871 53.6381C99.3582 60.395 97.5804 65.8869 95.406 70.9825C94.8315 71.7249 94.5105 72.7206 94.032 73.5584C93.6063 74.4492 92.9787 75.1382 92.6584 76.1343C91.8315 76.9679 91.309 78.1051 90.5976 79.0538C89.8097 80.2696 88.7575 81.2207 88.0217 82.4884C86.6872 83.6154 85.6411 85.0307 84.4154 86.2664C82.4861 87.7144 80.7836 89.3894 78.7484 90.7314C78.1446 91.2156 77.3467 91.5051 76.8592 92.1051C75.6226 92.6431 74.6305 93.4255 73.4247 93.9943C72.8166 94.3595 72.0469 94.563 71.5358 95.0247C60.5579 101.178 39.5814 101.178 28.6035 95.0247C28.0921 94.563 27.3224 94.3595 26.7146 93.9943C25.5088 93.4255 24.5164 92.6431 23.2798 92.1051C22.7925 91.5051 21.9946 91.2156 21.3908 90.7314C19.3556 89.3894 17.653 87.7144 15.7237 86.2664C14.4978 85.0307 13.452 83.6154 12.1174 82.4884C11.3817 81.2207 10.3293 80.2696 9.5415 79.0538C8.83013 78.1051 8.3073 76.9679 7.48074 76.1343C7.16029 75.1382 6.53281 74.4492 6.10685 73.5584C5.62835 72.7206 5.30748 71.7249 4.73294 70.9825C2.55866 65.8869 0.780836 60.395 0.267927 53.6381C0.16077 53.1156 0.488213 52.1582 0.0966797 51.9202C0.0966797 50.6035 0.0966797 49.2871 0.0966797 47.9705C0.488213 47.7325 0.16077 46.7751 0.26834 46.2531C0.781059 39.496 2.55906 34.004 4.73336 28.9084C5.3079 28.1665 5.62875 27.1706 6.10725 26.3325C6.5332 25.442 7.16071 24.7528 7.48116 23.7566C8.30772 22.9233 8.83053 21.7859 9.5419 20.8372C10.3297 19.6215 11.3822 18.6703 12.1178 17.4025C13.4524 16.2755 14.4982 14.86 15.7241 13.6246C17.6534 12.1767 19.356 10.5017 21.3912 9.15953C21.9948 8.67546 22.7928 8.38595 23.2803 7.78564C24.5169 7.24778 25.509 6.46533 26.7149 5.89655C27.3226 5.5318 28.0924 5.32821 28.6035 4.8666ZM47.1502 1.60381C37.4661 2.16619 30.3048 5.25133 23.9668 9.15995C23.2972 9.57766 22.5213 9.88966 22.0778 10.5338C20.9092 11.0251 20.1288 11.9046 19.1584 12.5946C18.2696 13.3657 17.2771 14.0332 16.5824 14.9989C14.3224 16.8031 12.5345 19.0796 10.9154 21.5246C10.0375 22.3067 9.5046 23.4339 8.85465 24.4441C8.37511 25.2813 7.76203 25.9847 7.48074 27.02C6.81862 27.6745 6.48334 28.6557 6.10685 29.5959C3.81035 34.5693 2.01173 40.0406 1.64183 46.9406C1.25029 47.1789 1.57773 48.136 1.47016 48.6578C1.47016 49.5165 1.47016 50.3752 1.47016 51.2339C1.57795 51.7557 1.25029 52.713 1.64183 52.9511C2.01153 59.8511 3.81015 65.3224 6.10685 70.2957C6.48334 71.2357 6.81862 72.2172 7.48074 72.8716C7.76203 73.907 8.37511 74.6104 8.85465 75.4475C9.5046 76.4575 10.0375 77.5848 10.9154 78.367C12.5345 80.812 14.3224 83.0884 16.5824 84.8926C17.2771 85.8581 18.2696 86.5258 19.1584 87.2968C20.1286 87.9868 20.909 88.8664 22.0778 89.3576C22.5213 90.0019 23.2972 90.3137 23.9668 90.7314C30.3048 94.6398 37.4661 97.725 47.1502 98.2873C48.6972 98.5736 51.4421 98.5736 52.989 98.2873C62.6729 97.725 69.8343 94.6398 76.1725 90.7314C76.8421 90.3137 77.6181 90.0019 78.0613 89.3576C79.2301 88.8664 80.0106 87.9868 80.9809 87.2968C81.8696 86.5258 82.8623 85.8581 83.5567 84.8926C85.8168 83.0884 87.6046 80.812 89.2238 78.367C90.1017 77.5848 90.6344 76.4575 91.2844 75.4475C91.7637 74.6104 92.3772 73.907 92.6584 72.8716C93.3206 72.2172 93.6558 71.2357 94.032 70.2957C96.3288 65.3224 98.1272 59.8511 98.497 52.9511C98.8886 52.713 98.5611 51.7557 98.6687 51.2339C98.6687 50.3752 98.6687 49.5165 98.6687 48.6578C98.5611 48.136 98.8886 47.1786 98.497 46.9406C98.1272 40.0406 96.3288 34.5693 94.032 29.5959C93.6558 28.6557 93.3206 27.6745 92.6584 27.02C92.3772 25.9847 91.7637 25.2813 91.2844 24.4441C90.6344 23.4341 90.1017 22.3069 89.2238 21.5246C87.6046 19.0796 85.8168 16.8031 83.5567 14.9989C82.8623 14.0334 81.8696 13.3659 80.9809 12.5946C80.0106 11.9046 79.2301 11.0251 78.0613 10.5338C77.6181 9.88966 76.8421 9.57788 76.1725 9.15995C69.8343 5.25153 62.6729 2.16619 52.989 1.60381C51.4421 1.31778 48.6975 1.31778 47.1502 1.60381Z" fill="url(#paint0_radial_350_4635)"/>
<path fill-rule="evenodd" clip-rule="evenodd" d="M39.2509 40.0708C36.8298 36.4304 34.2875 33.2349 34.2706 27.3628C34.2378 15.9398 39.5354 4.40543 50.5849 2.80566C50.8229 3.19723 51.7805 2.86977 52.3023 2.97733C61.8338 3.6922 69.0022 6.77034 75.4855 10.5335C75.9732 11.1338 76.7711 11.4233 77.3746 11.9074C77.8606 12.1656 78.1063 12.6641 78.7486 12.7661C80.9794 14.7139 83.2171 16.6551 85.2742 18.7767C86.0099 20.0444 87.0624 20.9957 87.8501 22.2113C88.5614 23.1601 89.0842 24.2974 89.9109 25.1308C90.2312 26.1269 90.859 26.8162 91.2847 27.7067C91.7632 28.5448 92.084 29.5406 92.6587 30.2826C98.409 40.6594 98.4088 59.2315 92.6587 69.6086C92.084 70.3505 91.7632 71.3464 91.2847 72.1845C90.859 73.0747 90.2312 73.764 89.9109 74.7603C89.0842 75.5937 88.5614 76.7307 87.8501 77.6796C87.0624 78.8951 86.0099 79.8465 85.2742 81.1142C83.2171 83.2356 80.9794 85.1769 78.7486 87.1247C78.1063 87.2266 77.8606 87.725 77.3746 87.9834C76.7711 88.4674 75.9732 88.7571 75.4855 89.3572C69.4839 92.8581 62.8476 95.7237 54.3628 96.7414C62.3839 93.1995 66.673 85.9258 68.2729 75.9624C68.6672 75.6123 68.3353 74.5362 68.4448 73.9016C68.662 66.3574 66.8134 60.8789 63.2931 57.0721C62.6205 56.2563 61.8763 55.5122 61.0603 54.8398C55.2148 49.8664 47.472 46.7901 41.3117 42.1318C40.6965 41.3727 40.0097 40.686 39.2509 40.0708ZM68.2729 22.0392C64.9109 19.3339 61.8703 16.3065 55.9086 16.2005C54.1991 14.1167 47.2939 11.3961 46.9786 15.6853C46.7905 18.246 49.6504 19.8895 50.5849 21.8676C52.1803 25.2446 52.47 28.9217 54.5348 30.454C52.2653 33.8687 53.043 45.3167 57.454 44.8794C59.5126 44.6754 58.8087 41.935 59.6865 40.2427C60.6248 42.9682 62.3531 44.9033 64.4949 46.4249C65.1009 47.1377 66.0976 48.3682 66.8994 48.314C66.1671 47.8439 65.7425 47.0667 65.0103 46.5968C62.7385 43.602 61.026 40.0482 59.3432 36.4647C57.7607 37.916 57.4548 40.6437 56.939 43.162C55.4464 42.1932 54.9944 40.1836 54.7065 38.0102C54.7065 37.0941 54.7065 36.1785 54.7065 35.2626C54.4714 33.3114 56.3163 31.8902 55.9086 29.9392C55.7627 29.2412 54.7191 28.4528 54.3628 27.8784C53.2323 26.0541 52.8713 23.5347 51.787 21.3526C50.6621 19.0876 48.5559 17.634 48.5243 15.3418C51.0704 14.5377 53.451 16.6518 55.0501 17.9178C59.9917 17.8271 62.7616 19.8348 65.3536 21.8676C69.7595 25.3224 71.6091 29.0328 74.1119 34.4037C75.1259 36.5803 76.2222 40.269 77.8899 41.4446C79.4945 42.5758 81.5678 42.6882 83.2134 43.6771C84.8232 44.6444 86.3513 45.3366 87.6784 46.94C84.7199 46.7862 82.4021 47.2732 80.6375 48.3137C81.3745 50.6354 83.348 51.9894 85.4459 53.1221C87.5318 54.2479 89.64 55.4617 91.2847 56.5565C89.6013 53.0881 85.708 51.8296 83.3853 49.0003C85.5236 48.6201 87.6682 48.2459 89.7392 47.7984C87.4846 43.928 83.5339 41.7537 79.0918 40.0705C75.9161 34.7744 74.3174 27.9012 69.9903 23.7562C69.4899 23.1123 68.9174 22.5398 68.2729 22.0392ZM55.9086 20.8372C56.2788 21.8979 57.2264 22.3813 57.454 23.5848C59.1767 22.9886 57.9982 20.2 55.9086 20.8372Z" fill="#FFA230"/>
<path fill-rule="evenodd" clip-rule="evenodd" d="M50.5848 2.80573C51.1069 2.91332 52.0642 2.58586 52.3023 2.9774C51.7805 2.86984 50.8229 3.19727 50.5848 2.80573Z" fill="#FFCE92"/>
<path fill-rule="evenodd" clip-rule="evenodd" d="M29.9776 7.61416C34.125 5.86561 38.4066 4.25103 43.544 3.49268C43.6861 3.99116 42.4555 4.31449 41.6549 4.86656C36.4219 8.47451 32.8265 15.1369 32.0381 23.4133C31.6408 24.0463 31.9782 25.414 31.8664 26.3328C31.9683 44.8346 48.0664 47.3409 58.4845 55.5268C59.0997 56.2856 59.7864 56.9726 60.5453 57.5873C62.8886 60.8338 65.6516 64.6806 65.869 70.467C66.1301 77.4202 64.0877 85.5407 60.5453 89.3574C59.901 89.8578 59.3285 90.4303 58.8281 91.0746C56.162 93.8925 53.0477 96.195 48.5243 96.7417C42.0957 97.5186 34.9057 93.9762 29.9776 92.2769C29.466 91.8153 28.6964 91.6115 28.0884 91.2465C26.8826 90.6778 25.8905 89.8953 24.6539 89.3574C24.1664 88.7573 23.3685 88.4676 22.7647 87.9834C20.7295 86.6414 19.0269 84.9664 17.0977 83.5186C16.411 82.6594 15.7644 81.7609 14.8653 81.1144C14.1296 79.8465 13.0772 78.8953 12.2893 77.6798C11.578 76.7309 11.0552 75.5939 10.2286 74.7605C9.90835 73.7642 9.28065 73.0749 8.85469 72.1844C8.37619 71.3463 8.05534 70.3507 7.48081 69.6085C5.3065 64.5127 3.5287 59.021 3.01578 52.2639C2.9082 51.7418 3.23565 50.7847 2.84412 50.5467C2.84412 50.1462 2.84412 49.7454 2.84412 49.3446C3.23565 49.1066 2.9082 48.1492 3.01578 47.6274C3.5287 40.8705 5.3065 35.3786 7.48081 30.2828C8.05534 29.5406 8.37599 28.545 8.85469 27.7069C9.28065 26.8161 9.90815 26.1271 10.2286 25.131C11.0552 24.2976 11.578 23.1602 12.2893 22.2115C13.0772 20.9958 14.1296 20.0446 14.8653 18.7768C15.7644 18.1303 16.4112 17.2315 17.0977 16.3725C19.0269 14.9244 20.7295 13.2497 22.7647 11.9075C23.3683 11.4235 24.1664 11.1339 24.6539 10.5336C25.8905 9.99577 26.8826 9.21329 28.0884 8.64454C28.6964 8.27937 29.466 8.07597 29.9776 7.61416ZM46.1199 64.2846C46.3549 66.2358 44.51 67.6571 44.918 69.6083C45.0654 70.3147 46.1045 71.0899 46.4635 71.6691C47.5945 73.4934 47.9556 76.0126 49.0394 78.1946C50.1647 80.4602 52.2891 81.905 52.3023 84.2054C49.756 85.0094 47.3754 82.8954 45.7765 81.6292C40.8352 81.7319 38.0421 79.6942 35.4727 77.6796C31.0736 74.2303 29.1484 70.4889 26.7147 65.1433C25.7195 62.9582 24.5828 59.2628 22.9367 58.1024C21.2894 56.9413 19.0622 57.0412 17.4412 56.0416C15.7786 55.0167 14.584 54.0275 13.148 52.6073C16.1163 52.7707 18.3885 52.238 20.189 51.2335C19.2359 47.6237 15.2896 46.7749 12.4612 45.051C11.3406 44.3683 10.7011 43.198 9.54174 42.9902C11.2462 46.4378 15.1233 47.7124 17.4412 50.5464C15.3359 50.9597 13.1392 51.2814 11.0873 51.7485C13.3529 55.608 17.3033 57.7824 21.7346 59.4764C24.9172 64.7656 26.5082 71.647 30.8363 75.7907C31.3367 76.4347 31.9092 77.0072 32.5534 77.5079C35.9157 80.2135 38.9563 83.2406 44.918 83.3467C46.6441 85.4283 53.5208 88.1381 53.8478 83.8617C54.0416 81.3278 51.168 79.6407 50.2415 77.6796C48.6473 74.3051 48.3444 70.6268 46.2916 69.0932C48.5521 65.713 47.7692 54.1927 43.3723 54.6681C41.3224 54.8892 42.0365 57.6246 41.1398 59.3047C40.22 56.6754 38.6081 54.7384 36.5031 53.294C35.8288 52.5354 34.8078 51.2141 33.9272 51.2335C34.7161 51.7612 35.1989 52.5946 35.988 53.1223C37.9189 56.1718 40.01 59.0605 41.1398 62.911C43.3532 62.0332 43.1941 58.7832 43.8874 56.3852C45.3976 57.2795 45.7551 59.3259 46.1199 61.3653C46.1199 62.3386 46.1199 63.3116 46.1199 64.2846ZM44.918 78.71C44.5724 77.6244 43.5651 77.2008 43.3723 75.9624C41.6909 76.6 42.8058 79.3247 44.918 78.71Z" fill="#577FA2"/>
<path fill-rule="evenodd" clip-rule="evenodd" d="M32.0383 23.4133C31.9263 24.3318 32.2637 25.6995 31.8666 26.3329C31.9782 25.414 31.641 24.0464 32.0383 23.4133Z" fill="#ADC0D1"/>
<path fill-rule="evenodd" clip-rule="evenodd" d="M54.7064 35.2627C54.7064 36.1786 54.7064 37.0944 54.7064 38.0103C54.4209 37.489 54.4209 35.7837 54.7064 35.2627Z" fill="#FFCE92"/>
<path fill-rule="evenodd" clip-rule="evenodd" d="M0.0966957 47.9701C0.204266 47.4483 -0.123185 46.491 0.268356 46.2529C0.160784 46.7747 0.488239 47.7321 0.0966957 47.9701Z" fill="#ADC0D1"/>
<path fill-rule="evenodd" clip-rule="evenodd" d="M99.8712 46.2529C100.263 46.491 99.9353 47.4483 100.043 47.9701C99.6513 47.7323 99.9788 46.775 99.8712 46.2529Z" fill="#ADC0D1"/>
<path fill-rule="evenodd" clip-rule="evenodd" d="M1.64231 46.9404C1.64231 47.5129 1.64231 48.0854 1.64231 48.6579C1.58504 48.6579 1.52774 48.6579 1.47067 48.6579C1.57823 48.1358 1.25077 47.1785 1.64231 46.9404Z" fill="#ADC0D1"/>
<path fill-rule="evenodd" clip-rule="evenodd" d="M98.4973 46.9404C98.8888 47.1787 98.5614 48.1361 98.6689 48.6579C98.612 48.6579 98.5544 48.6579 98.4973 48.6579C98.4973 48.0854 98.4973 47.5129 98.4973 46.9404Z" fill="#ADC0D1"/>
<path fill-rule="evenodd" clip-rule="evenodd" d="M2.8443 49.3441C2.95189 48.8221 2.62443 47.865 3.01597 47.627C2.90841 48.149 3.23584 49.1061 2.8443 49.3441Z" fill="#ADC0D1"/>
<path fill-rule="evenodd" clip-rule="evenodd" d="M1.47058 48.6572C1.52788 48.6572 1.58515 48.6572 1.64225 48.6572C1.64225 49.5159 1.64225 50.3744 1.64225 51.2331C1.58495 51.2331 1.52765 51.2331 1.47058 51.2331C1.47058 50.3744 1.47058 49.5159 1.47058 48.6572Z" fill="#FEFEFE"/>
<path fill-rule="evenodd" clip-rule="evenodd" d="M98.4973 48.6572C98.5544 48.6572 98.612 48.6572 98.6689 48.6572C98.6689 49.5159 98.6689 50.3744 98.6689 51.2331C98.612 51.2331 98.5544 51.2331 98.4973 51.2331C98.4973 50.3744 98.4973 49.5159 98.4973 48.6572Z" fill="#FEFEFE"/>
<path fill-rule="evenodd" clip-rule="evenodd" d="M2.84434 50.5469C3.23588 50.7849 2.90845 51.742 3.01601 52.264C2.62467 52.026 2.95213 51.0687 2.84434 50.5469Z" fill="#ADC0D1"/>
<path fill-rule="evenodd" clip-rule="evenodd" d="M1.47067 51.2334C1.52794 51.2334 1.58524 51.2334 1.64231 51.2334C1.64231 51.8056 1.64231 52.3783 1.64231 52.9506C1.25077 52.7125 1.57823 51.7554 1.47067 51.2334Z" fill="#ADC0D1"/>
<path fill-rule="evenodd" clip-rule="evenodd" d="M98.4973 51.2334C98.5544 51.2334 98.612 51.2334 98.6689 51.2334C98.5614 51.7554 98.8888 52.7125 98.4973 52.9506C98.4973 52.3783 98.4973 51.8056 98.4973 51.2334Z" fill="#ADC0D1"/>
<path fill-rule="evenodd" clip-rule="evenodd" d="M0.0966957 51.9202C0.488239 52.1582 0.160784 53.1156 0.268356 53.6376C-0.123185 53.3996 0.204266 52.4422 0.0966957 51.9202Z" fill="#ADC0D1"/>
<path fill-rule="evenodd" clip-rule="evenodd" d="M100.043 51.9202C99.9353 52.4422 100.263 53.3996 99.8712 53.6376C99.9788 53.1156 99.6513 52.1582 100.043 51.9202Z" fill="#ADC0D1"/>
<path fill-rule="evenodd" clip-rule="evenodd" d="M46.1199 61.3652C46.4054 61.9429 46.4054 63.7066 46.1199 64.2845C46.1199 63.3112 46.1199 62.3382 46.1199 61.3652Z" fill="#ADC0D1"/>
<path fill-rule="evenodd" clip-rule="evenodd" d="M68.2729 75.9622C68.3827 75.3278 68.0505 74.2515 68.4448 73.9016C68.3353 74.536 68.6672 75.6121 68.2729 75.9622Z" fill="#FFCE92"/>
<path fill-rule="evenodd" clip-rule="evenodd" d="M26.7147 5.89708C27.1448 5.35407 27.8887 5.12451 28.6038 4.8667C28.0924 5.32831 27.3227 5.53193 26.7147 5.89708Z" fill="#ADC0D1"/>
<path fill-rule="evenodd" clip-rule="evenodd" d="M21.391 9.15953C21.8345 8.51535 22.6103 8.20357 23.28 7.78564C22.7928 8.38595 21.9948 8.67569 21.391 9.15953Z" fill="#ADC0D1"/>
<path fill-rule="evenodd" clip-rule="evenodd" d="M12.1177 17.4025C13.2979 16.1213 14.3563 14.7184 15.724 13.6245C14.4982 14.8602 13.4522 16.2757 12.1177 17.4025Z" fill="#ADC0D1"/>
<path fill-rule="evenodd" clip-rule="evenodd" d="M7.48102 23.7569C8.13099 22.7469 8.66388 21.6197 9.54177 20.8374C8.83041 21.7862 8.3078 22.9233 7.48102 23.7569Z" fill="#ADC0D1"/>
<path fill-rule="evenodd" clip-rule="evenodd" d="M4.7334 28.9084C5.10988 27.9684 5.44516 26.987 6.10729 26.3325C5.62878 27.1704 5.30793 28.1662 4.7334 28.9084Z" fill="#ADC0D1"/>
<path fill-rule="evenodd" clip-rule="evenodd" d="M4.7334 70.9824C5.30793 71.7246 5.62878 72.7205 6.10729 73.5583C5.44516 72.9038 5.10988 71.9226 4.7334 70.9824Z" fill="#ADC0D1"/>
<path fill-rule="evenodd" clip-rule="evenodd" d="M9.54177 79.0533C8.66388 78.2711 8.13099 77.1438 7.48102 76.1338C8.3078 76.9674 8.83041 78.1044 9.54177 79.0533Z" fill="#ADC0D1"/>
<path fill-rule="evenodd" clip-rule="evenodd" d="M15.724 86.266C14.3563 85.172 13.2979 83.7694 12.1177 82.488C13.4522 83.6151 14.4982 85.0304 15.724 86.266Z" fill="#ADC0D1"/>
<path fill-rule="evenodd" clip-rule="evenodd" d="M23.28 92.1052C22.6103 91.6876 21.8345 91.3757 21.391 90.7314C21.9948 91.2155 22.7928 91.5052 23.28 92.1052Z" fill="#ADC0D1"/>
<path fill-rule="evenodd" clip-rule="evenodd" d="M28.6038 95.0243C27.8884 94.7664 27.1448 94.5371 26.7147 93.9939C27.3227 94.3591 28.0924 94.5626 28.6038 95.0243Z" fill="#ADC0D1"/>
<path fill-rule="evenodd" clip-rule="evenodd" d="M71.536 95.0243C72.0471 94.5626 72.8169 94.3591 73.4249 93.9939C72.9948 94.5371 72.2511 94.7664 71.536 95.0243Z" fill="#ADC0D1"/>
<path fill-rule="evenodd" clip-rule="evenodd" d="M76.8595 92.1052C77.3467 91.5052 78.1448 91.2155 78.7486 90.7314C78.3051 91.3757 77.5291 91.6876 76.8595 92.1052Z" fill="#ADC0D1"/>
<path fill-rule="evenodd" clip-rule="evenodd" d="M84.4157 86.266C85.6414 85.0304 86.6875 83.6151 88.022 82.488C86.8418 83.7694 85.7833 85.172 84.4157 86.266Z" fill="#ADC0D1"/>
<path fill-rule="evenodd" clip-rule="evenodd" d="M92.6587 76.1338C92.0087 77.1438 91.4757 78.2711 90.5979 79.0533C91.3093 78.1044 91.8318 76.9674 92.6587 76.1338Z" fill="#ADC0D1"/>
<path fill-rule="evenodd" clip-rule="evenodd" d="M95.4063 70.9824C95.0296 71.9224 94.6946 72.9038 94.0322 73.5583C94.5108 72.7205 94.8316 71.7246 95.4063 70.9824Z" fill="#ADC0D1"/>
<path fill-rule="evenodd" clip-rule="evenodd" d="M94.0322 26.3325C94.6944 26.987 95.0296 27.9684 95.4063 28.9084C94.8316 28.1662 94.5108 27.1704 94.0322 26.3325Z" fill="#ADC0D1"/>
<path fill-rule="evenodd" clip-rule="evenodd" d="M90.5979 20.8374C91.4757 21.6197 92.0087 22.7467 92.6587 23.7569C91.8318 22.9233 91.3093 21.7862 90.5979 20.8374Z" fill="#ADC0D1"/>
<path fill-rule="evenodd" clip-rule="evenodd" d="M84.4157 13.6245C85.7833 14.7184 86.8418 16.1211 88.022 17.4025C86.6875 16.2757 85.6414 14.8602 84.4157 13.6245Z" fill="#ADC0D1"/>
<path fill-rule="evenodd" clip-rule="evenodd" d="M76.8595 7.78564C77.5291 8.20357 78.3051 8.51535 78.7486 9.15953C78.1448 8.67546 77.3467 8.38572 76.8595 7.78564Z" fill="#ADC0D1"/>
<path fill-rule="evenodd" clip-rule="evenodd" d="M71.536 4.8667C72.2511 5.12451 72.9948 5.35407 73.4249 5.89708C72.8169 5.53193 72.0471 5.32831 71.536 4.8667Z" fill="#ADC0D1"/>
<path fill-rule="evenodd" clip-rule="evenodd" d="M22.0781 10.5336C22.5215 9.88937 23.2974 9.57759 23.9671 9.15967C23.4796 9.75997 22.6817 10.0495 22.0781 10.5336Z" fill="#ADC0D1"/>
<path fill-rule="evenodd" clip-rule="evenodd" d="M16.5826 14.9987C17.2773 14.0333 18.2698 13.3658 19.1586 12.5945C18.4305 13.5264 17.4174 14.1734 16.5826 14.9987Z" fill="#ADC0D1"/>
<path fill-rule="evenodd" clip-rule="evenodd" d="M8.85492 24.4439C9.50487 23.4339 10.0378 22.3067 10.9157 21.5244C10.2043 22.4732 9.68148 23.6105 8.85492 24.4439Z" fill="#ADC0D1"/>
<path fill-rule="evenodd" clip-rule="evenodd" d="M6.1073 29.5957C6.48381 28.6557 6.81909 27.6742 7.48121 27.0198C7.00251 27.8579 6.68184 28.8537 6.1073 29.5957Z" fill="#ADC0D1"/>
<path fill-rule="evenodd" clip-rule="evenodd" d="M6.1073 70.2952C6.68184 71.0373 7.00271 72.033 7.48121 72.871C6.81889 72.2166 6.48381 71.2351 6.1073 70.2952Z" fill="#ADC0D1"/>
<path fill-rule="evenodd" clip-rule="evenodd" d="M8.85492 75.447C9.68148 76.2804 10.2043 77.4179 10.9157 78.3665C10.0378 77.5844 9.50487 76.4571 8.85492 75.447Z" fill="#ADC0D1"/>
<path fill-rule="evenodd" clip-rule="evenodd" d="M16.5826 84.8921C17.4174 85.7175 18.4305 86.3645 19.1586 87.2963C18.2698 86.5253 17.2773 85.8579 16.5826 84.8921Z" fill="#ADC0D1"/>
<path fill-rule="evenodd" clip-rule="evenodd" d="M22.0781 89.3574C22.6817 89.8414 23.4796 90.1312 23.9671 90.7315C23.2972 90.3135 22.5213 90.0017 22.0781 89.3574Z" fill="#ADC0D1"/>
<path fill-rule="evenodd" clip-rule="evenodd" d="M76.1727 90.7315C76.66 90.1312 77.4578 89.8414 78.0616 89.3574C77.6183 90.0017 76.8424 90.3135 76.1727 90.7315Z" fill="#ADC0D1"/>
<path fill-rule="evenodd" clip-rule="evenodd" d="M80.9808 87.2963C81.7091 86.3645 82.7221 85.7175 83.557 84.8921C82.8625 85.8579 81.8696 86.5253 80.9808 87.2963Z" fill="#ADC0D1"/>
<path fill-rule="evenodd" clip-rule="evenodd" d="M89.2238 78.3665C89.9352 77.4179 90.4582 76.2804 91.2846 75.447C90.6346 76.4571 90.1019 77.5844 89.2238 78.3665Z" fill="#ADC0D1"/>
<path fill-rule="evenodd" clip-rule="evenodd" d="M92.6587 72.871C93.137 72.033 93.458 71.0373 94.0322 70.2952C93.656 71.2351 93.3206 72.2166 92.6587 72.871Z" fill="#ADC0D1"/>
<path fill-rule="evenodd" clip-rule="evenodd" d="M94.0322 29.5957C93.458 28.8537 93.137 27.8579 92.6587 27.0198C93.3206 27.6742 93.656 28.6557 94.0322 29.5957Z" fill="#ADC0D1"/>
<path fill-rule="evenodd" clip-rule="evenodd" d="M91.2846 24.4439C90.4582 23.6105 89.9352 22.4732 89.2238 21.5244C90.1019 22.3067 90.6346 23.4339 91.2846 24.4439Z" fill="#ADC0D1"/>
<path fill-rule="evenodd" clip-rule="evenodd" d="M80.9808 12.5945C81.8696 13.3656 82.8625 14.0331 83.557 14.9987C82.7221 14.1734 81.7091 13.5264 80.9808 12.5945Z" fill="#ADC0D1"/>
<path fill-rule="evenodd" clip-rule="evenodd" d="M78.0616 10.5336C77.4578 10.0495 76.66 9.75997 76.1727 9.15967C76.8424 9.57759 77.6183 9.88937 78.0616 10.5336Z" fill="#ADC0D1"/>
<path fill-rule="evenodd" clip-rule="evenodd" d="M39.2509 40.0713C40.0097 40.6865 40.6965 41.3733 41.3117 42.1321C40.5529 41.5171 39.8661 40.8301 39.2509 40.0713Z" fill="#FFCE92"/>
<path fill-rule="evenodd" clip-rule="evenodd" d="M61.0603 54.8398C61.8765 55.5125 62.6204 56.2566 63.293 57.0723C62.4768 56.4 61.7327 55.6558 61.0603 54.8398Z" fill="#FFCE92"/>
<path fill-rule="evenodd" clip-rule="evenodd" d="M75.4855 89.3574C75.9732 88.7574 76.7711 88.4677 77.3746 87.9836C76.9313 88.6277 76.1553 88.9397 75.4855 89.3574Z" fill="#FFCE92"/>
<path fill-rule="evenodd" clip-rule="evenodd" d="M78.7486 87.1245C80.9794 85.1767 83.2171 83.2354 85.2742 81.114C83.3649 83.3838 81.1396 85.3368 78.7486 87.1245Z" fill="#FFCE92"/>
<path fill-rule="evenodd" clip-rule="evenodd" d="M89.9108 74.7603C89.2611 75.7703 88.7279 76.8971 87.85 77.6795C88.5614 76.7306 89.0842 75.5936 89.9108 74.7603Z" fill="#FFCE92"/>
<path fill-rule="evenodd" clip-rule="evenodd" d="M92.6587 69.6084C92.282 70.5484 91.9468 71.5298 91.2847 72.1843C91.7632 71.3462 92.084 70.3503 92.6587 69.6084Z" fill="#FFCE92"/>
<path fill-rule="evenodd" clip-rule="evenodd" d="M91.2847 27.7065C91.9468 28.361 92.282 29.3422 92.6587 30.2824C92.084 29.5402 91.7632 28.5446 91.2847 27.7065Z" fill="#FFCE92"/>
<path fill-rule="evenodd" clip-rule="evenodd" d="M87.85 22.2109C88.7279 22.9932 89.2608 24.1202 89.9108 25.1305C89.0842 24.2968 88.5614 23.1595 87.85 22.2109Z" fill="#FFCE92"/>
<path fill-rule="evenodd" clip-rule="evenodd" d="M78.7486 12.7661C81.1396 14.554 83.3649 16.507 85.2742 18.7767C83.2171 16.6552 80.9794 14.7139 78.7486 12.7661Z" fill="#FFCE92"/>
<path fill-rule="evenodd" clip-rule="evenodd" d="M75.4855 10.5337C76.1553 10.9516 76.9313 11.2634 77.3746 11.9076C76.7711 11.4235 75.9732 11.134 75.4855 10.5337Z" fill="#FFCE92"/>
<path fill-rule="evenodd" clip-rule="evenodd" d="M28.0884 8.64464C28.5185 8.10141 29.262 7.87204 29.9776 7.61426C29.4662 8.07606 28.6964 8.27946 28.0884 8.64464Z" fill="#ADC0D1"/>
<path fill-rule="evenodd" clip-rule="evenodd" d="M22.765 11.9076C23.2085 11.2634 23.9842 10.9516 24.6541 10.5337C24.1663 11.134 23.3685 11.4235 22.765 11.9076Z" fill="#ADC0D1"/>
<path fill-rule="evenodd" clip-rule="evenodd" d="M14.8655 18.7768C15.629 17.9948 16.2456 17.0658 17.0979 16.3726C16.4112 17.2315 15.7646 18.1304 14.8655 18.7768Z" fill="#ADC0D1"/>
<path fill-rule="evenodd" clip-rule="evenodd" d="M10.2288 25.1305C10.8787 24.1202 11.4116 22.9932 12.2895 22.2109C11.5779 23.1597 11.0553 24.297 10.2288 25.1305Z" fill="#ADC0D1"/>
<path fill-rule="evenodd" clip-rule="evenodd" d="M7.48102 30.2824C7.85752 29.3422 8.19281 28.361 8.85493 27.7065C8.3764 28.5446 8.05555 29.5402 7.48102 30.2824Z" fill="#ADC0D1"/>
<path fill-rule="evenodd" clip-rule="evenodd" d="M7.48102 69.6084C8.05555 70.3503 8.3762 71.3462 8.85493 72.1843C8.19281 71.5298 7.85752 70.5484 7.48102 69.6084Z" fill="#ADC0D1"/>
<path fill-rule="evenodd" clip-rule="evenodd" d="M12.2895 77.6795C11.4116 76.8971 10.8787 75.7703 10.2288 74.7603C11.0553 75.5936 11.5779 76.7306 12.2895 77.6795Z" fill="#ADC0D1"/>
<path fill-rule="evenodd" clip-rule="evenodd" d="M17.0979 83.5182C16.2454 82.8252 15.629 81.8962 14.8655 81.114C15.7646 81.7605 16.4112 82.6593 17.0979 83.5182Z" fill="#ADC0D1"/>
<path fill-rule="evenodd" clip-rule="evenodd" d="M24.6541 89.3574C23.9842 88.9397 23.2085 88.6277 22.765 87.9836C23.3685 88.4677 24.1663 88.7574 24.6541 89.3574Z" fill="#ADC0D1"/>
<path fill-rule="evenodd" clip-rule="evenodd" d="M29.9776 92.2767C29.2622 92.0186 28.5185 91.7892 28.0884 91.2463C28.6964 91.6113 29.4662 91.8151 29.9776 92.2767Z" fill="#ADC0D1"/>
<path fill-rule="evenodd" clip-rule="evenodd" d="M58.8278 91.0746C59.3285 90.4306 59.901 89.8581 60.5452 89.3574C60.0446 90.002 59.4723 90.5742 58.8278 91.0746Z" fill="#ADC0D1"/>
<path fill-rule="evenodd" clip-rule="evenodd" d="M58.4844 55.5264C59.2433 56.1416 59.9303 56.8283 60.5452 57.5872C59.7864 56.9722 59.0996 56.2852 58.4844 55.5264Z" fill="#ADC0D1"/>
<path fill-rule="evenodd" clip-rule="evenodd" d="M65.0103 46.5964C65.7425 47.0665 66.1671 47.8438 66.8994 48.3136C66.0976 48.368 65.1012 47.1374 64.4949 46.4248C64.7424 46.3331 64.9141 47.0939 65.0103 46.5964Z" fill="#FFCE92"/>
<path fill-rule="evenodd" clip-rule="evenodd" d="M69.9903 23.7567C74.3174 27.9017 75.9161 34.7749 79.0918 40.071C83.5342 41.7539 87.4846 43.9285 89.7392 47.7989C87.6682 48.2464 85.5237 48.6206 83.3853 49.0008C85.708 51.8301 89.6013 53.0884 91.2847 56.557C89.6401 55.4622 87.5318 54.2485 85.4459 53.1226C83.3481 51.9899 81.3745 50.6357 80.6375 48.3143C82.4019 47.2737 84.7199 46.7867 87.6784 46.9402C86.3513 45.3371 84.8235 44.6449 83.2134 43.6776C81.5678 42.6887 79.4945 42.5761 77.8899 41.4451C76.2222 40.2696 75.126 36.581 74.112 34.4042C71.6091 29.033 69.7595 25.3229 65.3537 21.868C62.7616 19.8353 59.9917 17.8275 55.0501 17.9182C53.451 16.6523 51.0704 14.5382 48.5243 15.3423C48.5559 17.6342 50.6621 19.0881 51.787 21.3529C52.8713 23.535 53.2323 26.0541 54.3629 27.8786C54.7192 28.4531 55.7627 29.2415 55.9086 29.9394C56.3163 31.8907 54.4714 33.3119 54.7065 35.2629C54.421 35.7839 54.421 37.4894 54.7065 38.0105C54.9945 40.1838 55.4464 42.1935 56.939 43.1622C57.4548 40.644 57.7607 37.9163 59.3432 36.465C61.0261 40.0482 62.7385 43.6023 65.0103 46.5971C64.9139 47.0945 64.7424 46.3337 64.4949 46.4254C62.3531 44.9038 60.6248 42.9687 59.6866 40.243C58.8087 41.9356 59.5126 44.6757 57.4541 44.8797C53.043 45.3172 52.2653 33.8692 54.5348 30.4545C52.47 28.9222 52.1803 25.2451 50.5849 21.868C49.6504 19.8899 46.7905 18.2465 46.9786 15.6858C47.2939 11.3966 54.1991 14.1172 55.9086 16.201C61.8704 16.3071 64.9109 19.3344 68.2729 22.0397C68.7736 22.6837 69.3461 23.2562 69.9903 23.7567Z" fill="#FEFEFE"/>
<path fill-rule="evenodd" clip-rule="evenodd" d="M68.2729 22.0396C68.9174 22.5401 69.4899 23.1126 69.9903 23.7568C69.346 23.2564 68.7736 22.684 68.2729 22.0396Z" fill="#FFCE92"/>
<path fill-rule="evenodd" clip-rule="evenodd" d="M57.454 23.5848C57.2265 22.3811 56.2788 21.8978 55.9086 20.8372C57.9982 20.2 59.1767 22.9886 57.454 23.5848Z" fill="#FEFEFE"/>
<path fill-rule="evenodd" clip-rule="evenodd" d="M30.8362 75.7905C31.4805 76.2912 32.053 76.8634 32.5534 77.5077C31.9091 77.0073 31.3367 76.4348 30.8362 75.7905Z" fill="#ADC0D1"/>
<path fill-rule="evenodd" clip-rule="evenodd" d="M35.988 53.1227C35.1991 52.595 34.7163 51.7614 33.9274 51.2336C34.808 51.2145 35.829 52.5356 36.5033 53.2944C36.2558 53.3861 36.0841 52.6253 35.988 53.1227Z" fill="#ADC0D1"/>
<path fill-rule="evenodd" clip-rule="evenodd" d="M30.8363 75.7904C26.5082 71.6467 24.9172 64.7656 21.7345 59.4762C17.3033 57.7824 13.3531 55.6078 11.0873 51.7483C13.139 51.2812 15.3359 50.9596 17.4412 50.5464C15.1233 47.7124 11.2462 46.4377 9.54175 42.9902C10.7009 43.1977 11.3406 44.368 12.4612 45.051C15.2896 46.7747 19.2359 47.6237 20.189 51.2332C18.3887 52.2378 16.1165 52.7705 13.148 52.607C14.584 54.0272 15.7786 55.0167 17.4412 56.0416C19.0622 57.0409 21.2894 56.9413 22.9367 58.1024C24.5828 59.2628 25.7195 62.9577 26.7146 65.1433C29.1484 70.4889 31.0735 74.2301 35.4727 77.6793C38.0421 79.6939 40.8352 81.7316 45.7765 81.6292C47.3751 82.8954 49.7557 85.0092 52.3023 84.2051C52.2891 81.905 50.1647 80.4602 49.0394 78.1946C47.9556 76.0123 47.5945 73.4931 46.4635 71.6691C46.1045 71.0897 45.0656 70.3144 44.918 69.6083C44.5103 67.657 46.3549 66.2356 46.1199 64.2846C46.4054 63.7066 46.4054 61.943 46.1199 61.3653C45.7551 59.3259 45.3976 57.2792 43.8876 56.385C43.1944 58.783 43.3532 62.0329 41.14 62.9108C40.0102 59.0602 37.9191 56.1715 35.988 53.1223C36.0844 52.6249 36.2561 53.3857 36.5033 53.294C38.6084 54.7381 40.22 56.6754 41.14 59.3045C42.0368 57.6243 41.3227 54.8892 43.3723 54.6678C47.7695 54.1927 48.5524 65.7128 46.2918 69.093C48.3447 70.6268 48.6475 74.3048 50.2417 77.6793C51.1683 79.6405 54.0418 81.3278 53.848 83.8617C53.521 88.1381 46.6441 85.4281 44.9183 83.3464C38.9565 83.2406 35.916 80.2132 32.5537 77.5076C32.053 76.8633 31.4805 76.2911 30.8363 75.7904Z" fill="#FEFEFE"/>
<path fill-rule="evenodd" clip-rule="evenodd" d="M43.3723 75.9622C43.5651 77.2008 44.5724 77.6244 44.918 78.7097C42.8058 79.3244 41.6909 76.5997 43.3723 75.9622Z" fill="#FEFEFE"/>
<path fill-rule="evenodd" clip-rule="evenodd" d="M47.1503 1.60369C48.6972 1.31765 51.4421 1.31765 52.9891 1.60369C51.043 1.60369 49.0968 1.60369 47.1503 1.60369Z" fill="#ADC0D1"/>
<path fill-rule="evenodd" clip-rule="evenodd" d="M47.1503 98.2869C49.0965 98.2869 51.0428 98.2869 52.9891 98.2869C51.4421 98.5729 48.6975 98.5729 47.1503 98.2869Z" fill="#ADC0D1"/>
<defs>
<radialGradient id="paint0_radial_350_4635" cx="0" cy="0" r="1" gradientUnits="userSpaceOnUse" gradientTransform="translate(50.0698 49.9456) rotate(90) scale(49.6939 49.9729)">
<stop offset="0.21875" stop-color="#FFA230"/>
<stop offset="0.755208" stop-color="#577FA2"/>
</radialGradient>
</defs>
</svg>
