<svg width="146" height="100" viewBox="0 0 146 100" fill="none" xmlns="http://www.w3.org/2000/svg">
<mask id="mask0_370_5725" style="mask-type:luminance" maskUnits="userSpaceOnUse" x="20" y="1" width="36" height="46">
<path d="M20.293 13.7248C20.293 13.7248 27.3614 5.96451 32.2569 2.74831C33.8167 1.72454 45.4175 -4.3302 52.867 16.5084C56.9425 27.918 57.0106 36.4171 47.7468 40.0418C42.1995 42.2128 44.1821 46.2771 44.1821 46.2771" fill="white"/>
</mask>
<g mask="url(#mask0_370_5725)">
<path d="M20.293 13.7248C20.293 13.7248 27.3614 5.96451 32.2569 2.74831C33.8167 1.72454 45.4175 -4.3302 52.867 16.5084C56.9425 27.918 57.0106 36.4171 47.7468 40.0418C42.1995 42.2128 44.1821 46.2771 44.1821 46.2771" fill="url(#paint0_linear_370_5725)"/>
</g>
<path d="M31.5798 1.80299C26.6138 5.06531 19.6809 12.651 19.3884 12.9716C18.955 13.4486 19.0058 14.1738 19.505 14.5888C20.0029 15.0032 20.7595 14.9554 21.1936 14.4779C21.2641 14.4005 28.2216 6.78786 32.9353 3.69242C33.0765 3.59801 36.5151 1.39129 40.7031 2.71916C45.1072 4.1162 48.9225 9.01324 51.7333 16.8789C56.2081 29.4028 54.881 36.0147 47.2946 38.9806C45.1059 39.8392 43.665 41.0798 43.0132 42.6755C42.153 44.7801 43.0591 46.6811 43.0982 46.7623C43.3749 47.3327 44.0779 47.5747 44.675 47.3134C45.2737 47.0549 45.5394 46.3781 45.2726 45.8033C45.2681 45.7923 44.7563 44.6648 45.2551 43.4835C45.6652 42.5086 46.656 41.7055 48.2007 41.1028C59.6455 36.623 57.3105 25.4077 53.9983 16.1362C50.8915 7.44494 46.6726 2.20042 41.4576 0.544838C36.2444 -1.1091 32.0407 1.50163 31.5798 1.80299Z" fill="#363254"/>
<mask id="mask1_370_5725" style="mask-type:luminance" maskUnits="userSpaceOnUse" x="115" y="18" width="18" height="4">
<path d="M115.346 18.2184H130.191C131.437 18.2184 132.446 19.0379 132.446 20.0458C132.446 21.0542 131.437 21.8721 130.191 21.8721H118.539L115.346 18.2184Z" fill="white"/>
</mask>
<g mask="url(#mask1_370_5725)">
<path d="M115.346 18.2184H130.191C131.437 18.2184 132.446 19.0379 132.446 20.0458C132.446 21.0542 131.437 21.8721 130.191 21.8721H118.539L115.346 18.2184Z" fill="url(#paint1_linear_370_5725)"/>
</g>
<path d="M130.191 19.3634C130.815 19.3634 131.248 19.7235 131.248 20.0457C131.248 20.3674 130.815 20.7275 130.191 20.7275C130.191 20.7275 120.114 20.7275 119.099 20.7275C118.86 20.4563 118.503 20.0441 117.908 19.3634C121.416 19.3634 130.191 19.3634 130.191 19.3634ZM112.785 17.0732L117.98 23.0182H130.191C132.096 23.0182 133.643 21.6848 133.643 20.0457C133.643 18.4061 132.096 17.0732 130.191 17.0732H112.785Z" fill="#363254"/>
<path d="M134.785 13.9707C136.827 13.0062 139.212 13.2422 140.119 14.4971C141.022 15.7553 140.1 17.5519 138.06 18.5202C136.022 19.4836 130.682 20.649 129.776 19.3892C128.87 18.1343 132.748 14.9346 134.785 13.9707Z" fill="#8B9DD7"/>
<path d="M135.315 14.9971C136.898 14.2495 138.636 14.4603 139.132 15.1481C139.27 15.3408 139.302 15.562 139.23 15.8266C139.102 16.3041 138.587 16.9925 137.527 17.4948C135.559 18.4247 132.064 18.9703 130.984 18.7068C131.383 17.8192 133.569 15.8238 135.315 14.9971ZM134.255 12.9447C132.548 13.7499 129.077 16.3173 128.528 18.3467L128.792 20.0391C130.432 22.3237 137.047 20.2768 138.59 19.5461C140.126 18.8188 141.204 17.6726 141.548 16.4013C141.795 15.495 141.637 14.5887 141.104 13.8482C139.854 12.1158 136.848 11.7194 134.255 12.9447Z" fill="#363254"/>
<path d="M138.412 21.3845C140.6 22.1091 141.819 23.7872 141.143 25.1343C140.462 26.483 138.14 26.9837 135.954 26.2569C133.77 25.5339 129.379 22.8079 130.057 21.4625C130.738 20.111 136.228 20.6599 138.412 21.3845Z" fill="#8B9DD7"/>
<path d="M138.019 22.4659H138.02C139.196 22.8573 139.84 23.5078 140.048 23.9876C140.207 24.3543 140.1 24.5695 140.063 24.6397C139.703 25.3544 138.035 25.7354 136.346 25.1749C134.416 24.5365 131.822 22.7377 131.333 21.9099C132.239 21.6091 135.908 21.7649 138.019 22.4659ZM128.979 20.9657L128.98 22.6273C129.823 24.5695 133.712 26.7273 135.563 27.3405C138.345 28.2654 141.272 27.515 142.221 25.6349C142.423 25.2293 142.524 24.794 142.524 24.3526C142.524 23.9365 142.435 23.5161 142.257 23.1044C141.721 21.872 140.462 20.8526 138.803 20.3037C137.148 19.7531 130.23 18.4807 128.979 20.9657Z" fill="#363254"/>
<path d="M138.731 17.2329C141.978 17.2121 144.623 18.3725 144.636 19.8277C144.652 21.2824 142.034 22.478 138.786 22.4989C135.544 22.5208 128.196 21.3939 128.181 19.9403C128.166 18.4834 135.489 17.2571 138.731 17.2329Z" fill="#8B9DD7"/>
<path d="M143.438 19.8387C143.438 19.8941 143.386 20.0023 143.241 20.1439C142.654 20.7164 141.005 21.3389 138.779 21.3532C135.994 21.3718 131.59 20.6226 129.895 19.9271C131.578 19.2058 135.96 18.3972 138.741 18.3785H138.74C141.815 18.3582 143.436 19.4539 143.438 19.8387ZM138.724 16.0867H138.723C136.364 16.1037 129.359 16.9277 127.562 18.6744L126.985 19.9518C127.018 23.3189 138.677 23.645 138.795 23.645C141.407 23.6269 143.766 22.9017 144.949 21.7506C145.536 21.1803 145.841 20.5128 145.833 19.8162C145.815 17.6309 142.825 16.0615 138.724 16.0867Z" fill="#363254"/>
<mask id="mask2_370_5725" style="mask-type:luminance" maskUnits="userSpaceOnUse" x="31" y="54" width="33" height="40">
<path d="M63.6518 54.5583V83.9712C63.6518 91.2237 56.3963 93.823 47.4481 93.823C38.4984 93.823 31.2465 91.2237 31.2465 83.9712V54.2113" fill="white"/>
</mask>
<g mask="url(#mask2_370_5725)">
<path d="M63.6518 54.5583V83.9712C63.6518 91.2237 56.3963 93.823 47.4481 93.823C38.4984 93.823 31.2465 91.2237 31.2465 83.9712V54.2113" fill="url(#paint2_linear_370_5725)"/>
</g>
<path d="M30.0494 54.2115V83.9714C30.0494 91.0642 36.2267 94.9688 47.4481 94.9688C58.6692 94.9688 64.8489 91.0642 64.8489 83.9714V54.5584C64.8489 53.9255 64.3126 53.4122 63.6518 53.4122C62.9905 53.4122 62.4547 53.9255 62.4547 54.5584V83.9714C62.4547 91.1679 54.2954 92.6775 47.4481 92.6775C40.6034 92.6775 32.4439 91.1679 32.4439 83.9714V54.2115C32.4439 53.5797 31.9073 53.0664 31.2465 53.0664C30.5858 53.0664 30.0494 53.5797 30.0494 54.2115Z" fill="#363254"/>
<path d="M38.3475 83.936C38.3475 86.8701 36.6327 89.2552 34.5165 89.2552C32.4 89.2552 30.6848 86.8701 30.6848 83.936C30.6848 80.9965 32.4 74.3599 34.5165 74.3599C36.6327 74.3599 38.3475 80.9965 38.3475 83.936Z" fill="#8B9DD7"/>
<path d="M31.0843 83.9361C31.0843 80.7397 32.9016 74.7415 34.5165 74.7415C36.1308 74.7415 37.9486 80.7397 37.9486 83.9361C37.9486 86.6599 36.4099 88.8743 34.5165 88.8743C32.6244 88.8743 31.0843 86.6599 31.0843 83.9361ZM30.2853 83.9361C30.2853 87.0799 32.1828 89.6384 34.5165 89.6384C36.8493 89.6384 38.746 87.0799 38.746 83.9361C38.746 81.0646 37.061 73.9768 34.5165 73.9768C31.9726 73.9768 30.2853 81.0646 30.2853 83.9361Z" fill="#363254"/>
<path d="M31.7169 84.4663C31.7169 81.6398 33.7905 76.5512 35.3042 76.5512C35.4493 76.5512 35.5914 76.6231 35.7282 76.7324C35.3498 75.8365 34.9164 75.2437 34.4572 75.2437C32.9424 75.2437 31.7169 81.6409 31.7169 84.4663Z" fill="#A6BDE6"/>
<path d="M40.1544 86.7621C40.1544 89.0291 38.7911 90.8675 37.1081 90.8675C35.4236 90.8675 34.0583 89.0291 34.0583 86.7621C34.0583 84.4884 35.4236 79.3679 37.1081 79.3679C38.7911 79.3679 40.1544 84.4884 40.1544 86.7621Z" fill="#8B9DD7"/>
<path d="M34.4572 86.762C34.4572 84.3857 35.8891 79.7505 37.1081 79.7505C38.3274 79.7505 39.7549 84.3857 39.7549 86.762C39.7549 88.8145 38.5669 90.4855 37.1081 90.4855C35.6456 90.4855 34.4572 88.8145 34.4572 86.762ZM33.6593 86.762C33.6593 89.2355 35.2066 91.2496 37.1081 91.2496C39.0069 91.2496 40.5535 89.2355 40.5535 86.762C40.5535 84.8265 39.3309 78.9858 37.1081 78.9858C34.8818 78.9858 33.6593 84.8265 33.6593 86.762Z" fill="#363254"/>
<path d="M35.34 85.4116C35.1866 83.7961 36.6155 81.1146 37.7286 80.9186C37.8328 80.9049 37.94 80.9296 38.0466 80.974C37.7203 80.5096 37.3511 80.1396 37.0348 80.2846C35.933 80.8066 35.1866 83.8016 35.34 85.4116Z" fill="#A6BDE6"/>
<mask id="mask3_370_5725" style="mask-type:luminance" maskUnits="userSpaceOnUse" x="80" y="54" width="34" height="41">
<path d="M113.223 54.9174V84.3298C113.223 91.5834 105.968 94.1814 97.019 94.1814C88.0699 94.1814 80.8149 91.5834 80.8149 84.3298V54.5704" fill="white"/>
</mask>
<g mask="url(#mask3_370_5725)">
<path d="M113.223 54.9174V84.3298C113.223 91.5834 105.968 94.1814 97.019 94.1814C88.0699 94.1814 80.8149 91.5834 80.8149 84.3298V54.5704" fill="url(#paint3_linear_370_5725)"/>
</g>
<path d="M79.6173 54.5702V84.3296C79.6173 91.4207 85.7975 95.3269 97.019 95.3269C102.07 95.3269 106.12 94.5359 109.058 92.9769C112.565 91.115 114.42 88.1255 114.42 84.3296V54.9172C114.42 54.2848 113.883 53.7721 113.223 53.7721C112.562 53.7721 112.027 54.2848 112.027 54.9172V84.3296C112.027 87.3262 110.674 89.4989 107.895 90.975C105.353 92.3226 101.593 93.0357 97.019 93.0357C90.173 93.0357 82.0131 91.5239 82.0131 84.3296V54.5702C82.0131 53.9368 81.4757 53.4241 80.8149 53.4241C80.1541 53.4241 79.6173 53.9368 79.6173 54.5702Z" fill="#363254"/>
<path d="M87.9178 84.294C87.9178 87.2281 86.2038 89.617 84.088 89.617C81.9683 89.617 80.2549 87.2281 80.2549 84.294C80.2549 81.3561 81.9683 74.719 84.088 74.719C86.2038 74.719 87.9178 81.3561 87.9178 84.294Z" fill="#7483CA"/>
<path d="M80.6528 84.294C80.6528 82.7937 81.1072 80.4207 81.7563 78.5247C82.4786 76.4129 83.3724 75.1004 84.088 75.1004C85.7012 75.1004 87.5193 81.0981 87.5193 84.294C87.5193 87.0189 85.9802 89.2344 84.088 89.2344C82.1936 89.2344 80.6528 87.0189 80.6528 84.294ZM80.9976 78.287C80.3246 80.2505 79.8547 82.7218 79.8547 84.294C79.8547 87.4388 81.7536 89.9985 84.088 89.9985C86.4201 89.9985 88.3168 87.4388 88.3168 84.294C88.3168 81.4225 86.6316 74.3374 84.088 74.3374C82.6501 74.3374 81.6141 76.4837 80.9976 78.287Z" fill="#363254"/>
<path d="M81.2892 84.8282C81.2892 82.0007 83.3613 76.9087 84.875 76.9087C85.0205 76.9087 85.1622 76.9829 85.2994 77.0904C84.9198 76.1962 84.4876 75.6023 84.0288 75.6023C82.5129 75.6023 81.2892 82.0007 81.2892 84.8282Z" fill="#839AD6"/>
<path d="M89.7258 87.1194C89.7258 89.3897 88.3633 91.2237 86.6786 91.2237C84.9956 91.2237 83.6308 89.3897 83.6308 87.1194C83.6308 84.8462 84.9956 79.7263 86.6786 79.7263C88.3633 79.7263 89.7258 84.8462 89.7258 87.1194Z" fill="#7483CA"/>
<path d="M84.0304 87.1195C84.0304 84.7432 85.4594 80.1091 86.6786 80.1091C87.8962 80.1091 89.3262 84.7432 89.3262 87.1195C89.3262 89.1725 88.138 90.844 86.6786 90.844C85.2175 90.844 84.0304 89.1725 84.0304 87.1195ZM83.2324 87.1195C83.2324 89.5958 84.7781 91.6071 86.6786 91.6071C88.5791 91.6071 90.1249 89.5958 90.1249 87.1195C90.1249 85.1845 88.9018 79.345 86.6786 79.345C84.4538 79.345 83.2324 85.1845 83.2324 87.1195Z" fill="#363254"/>
<path d="M84.9121 85.7699C84.7566 84.1561 86.1861 81.4751 87.2996 81.278C87.4047 81.2637 87.5121 81.2874 87.6173 81.3324C87.2913 80.868 86.9221 80.4974 86.6056 80.6429C85.5031 81.1649 84.7566 84.1594 84.9121 85.7699Z" fill="#839AD6"/>
<mask id="mask4_370_5725" style="mask-type:luminance" maskUnits="userSpaceOnUse" x="44" y="14" width="11" height="30">
<path d="M50.0196 14.3873C56.3304 24.5645 55.658 33.1619 47.2494 37.6687C42.2151 40.3683 44.9866 43.9287 44.9866 43.9287" fill="white"/>
</mask>
<g mask="url(#mask4_370_5725)">
<path d="M50.0196 14.3873C56.3304 24.5645 55.658 33.1619 47.2494 37.6687C42.2151 40.3683 44.9866 43.9287 44.9866 43.9287" fill="url(#paint4_linear_370_5725)"/>
</g>
<path d="M49.4093 13.4013C48.8396 13.7246 48.6509 14.4278 48.9897 14.9718C52.5027 20.6341 53.7598 25.7622 52.6272 29.7985C51.8219 32.6678 49.8136 34.9794 46.6652 36.6695C44.675 37.7355 43.4879 39.0804 43.1349 40.6647C42.6546 42.8176 43.9709 44.5407 44.0273 44.6126C44.4199 45.1171 45.1608 45.2192 45.6919 44.8486C46.2219 44.4776 46.3377 43.7623 45.9536 43.2518C45.9477 43.2419 45.2181 42.2511 45.4812 41.1214C45.6919 40.2178 46.4841 39.3928 47.8344 38.6682C51.5697 36.6646 53.9611 33.882 54.9404 30.3919C56.2435 25.7452 54.8997 20.0083 51.0488 13.802C50.712 13.2575 49.9759 13.0791 49.4093 13.4013Z" fill="#080604"/>
<mask id="mask5_370_5725" style="mask-type:luminance" maskUnits="userSpaceOnUse" x="1" y="7" width="125" height="89">
<path d="M86.8845 7.17206C86.8845 7.17206 76.4068 7.04966 38.1244 8.30781C-0.155875 9.56542 1.2569 23.1806 1.19745 42.7336V89.7641C1.19745 93.7421 4.67264 95.3467 8.96068 95.3467C13.2481 95.3467 16.7285 93.7421 16.7285 89.7641C16.7285 89.7641 17.7171 76.3256 18.5706 68.1509C20.48 38.4531 56.6237 73.0342 82.8981 71.4204C106.774 69.9525 125.576 61.7783 125.576 42.3521C125.576 22.9215 113.254 7.17206 86.8845 7.17206Z" fill="white"/>
</mask>
<g mask="url(#mask5_370_5725)">
<path d="M86.8845 7.17206C86.8845 7.17206 76.4068 7.04966 38.1244 8.30781C-0.155875 9.56542 1.2569 23.1806 1.19745 42.7336V89.7641C1.19745 93.7421 4.67264 95.3467 8.96068 95.3467C13.2481 95.3467 16.7285 93.7421 16.7285 89.7641C16.7285 89.7641 17.7171 76.3256 18.5706 68.1509C20.48 38.4531 56.6237 73.0342 82.8981 71.4204C106.774 69.9525 125.576 61.7783 125.576 42.3521C125.576 22.9215 113.254 7.17206 86.8845 7.17206Z" fill="url(#paint5_linear_370_5725)"/>
</g>
<path d="M2.39447 89.7642V42.7338C2.39447 42.7382 2.3975 40.6615 2.3975 40.6615C2.40399 22.5753 2.40917 10.6266 38.1646 9.45192C75.9508 8.21133 86.7644 8.31563 86.8701 8.31617H86.8845C98.9234 8.31617 108.734 11.758 115.254 18.2683C121.224 24.2265 124.379 32.5543 124.379 42.3523C124.379 63.3204 101.78 69.1117 82.8217 70.2776C72.8438 70.8891 61.0745 65.9959 50.6904 61.6775C39.0506 56.8381 28.9983 52.659 22.8094 56.2869C19.5404 58.2027 17.7636 62.0606 17.3766 68.0808C16.5354 76.1336 15.5435 89.5474 15.5343 89.6841C15.5315 93.6243 11.4146 94.2017 8.9607 94.2017C6.50914 94.2017 2.39447 93.6243 2.39447 89.7642ZM38.084 7.16396C0.0151309 8.41388 0.00864744 21.9396 0.00302661 40.6599L0 42.7305V89.7642C0 93.9768 3.35024 96.4946 8.96068 96.4946C14.5761 96.4946 17.9259 93.9768 17.9259 89.7642C17.9328 89.7088 18.9199 76.3274 19.7624 68.2641C20.1016 63.0015 21.5068 59.7381 24.0597 58.24C29.1883 55.2357 39.1664 59.3851 49.736 63.7793C60.3688 68.2004 72.4193 73.2122 82.975 72.5634C111.219 70.826 126.773 60.0971 126.773 42.3523C126.773 31.9533 123.387 23.0775 116.983 16.6825C110 9.71156 99.5919 6.02602 86.8845 6.02602H86.8989C86.7943 6.02479 75.9541 5.91679 38.084 7.16396Z" fill="#363254"/>
<mask id="mask6_370_5725" style="mask-type:luminance" maskUnits="userSpaceOnUse" x="2" y="43" width="4" height="47">
<path d="M2.24186 44.023C2.28272 48.4398 1.65643 87.0177 4.11295 89.3342C3.34116 87.6259 5.02957 50.2518 5.00796 47.9029L4.98525 46.5284C4.98525 45.8741 4.98525 45.2291 4.98525 44.5868C4.03836 44.2399 3.11936 43.8134 2.23213 43.3254L2.24186 44.023Z" fill="white"/>
</mask>
<g mask="url(#mask6_370_5725)">
<path d="M2.24186 44.023C2.28272 48.4398 1.65643 87.0177 4.11295 89.3342C3.34116 87.6259 5.02957 50.2518 5.00796 47.9029L4.98525 46.5284C4.98525 45.8741 4.98525 45.2291 4.98525 44.5868C4.03836 44.2399 3.11936 43.8134 2.23213 43.3254L2.24186 44.023Z" fill="url(#paint6_linear_370_5725)"/>
</g>
<mask id="mask7_370_5725" style="mask-type:luminance" maskUnits="userSpaceOnUse" x="2" y="8" width="118" height="37">
<path d="M86.8701 8.46597C86.8701 8.46597 76.6199 8.3463 39.1636 9.57701C1.70894 10.8077 2.28377 24.4959 2.28377 42.8984L2.29156 43.5791C3.15846 44.0671 4.05693 44.4936 4.97896 44.8411C4.98761 27.425 5.7343 14.6464 41.8603 13.4596C79.3151 12.2289 89.5686 12.3486 89.5686 12.3486C103.893 12.3486 113.754 17.1452 119.894 24.6288C114.241 14.9445 103.538 8.46597 86.8701 8.46597Z" fill="white"/>
</mask>
<g mask="url(#mask7_370_5725)">
<path d="M86.8701 8.46597C86.8701 8.46597 76.6199 8.3463 39.1636 9.57701C1.70894 10.8077 2.28377 24.4959 2.28377 42.8984L2.29156 43.5791C3.15846 44.0671 4.05693 44.4936 4.97896 44.8411C4.98761 27.425 5.7343 14.6464 41.8603 13.4596C79.3151 12.2289 89.5686 12.3486 89.5686 12.3486C103.893 12.3486 113.754 17.1452 119.894 24.6288C114.241 14.9445 103.538 8.46597 86.8701 8.46597Z" fill="url(#paint7_linear_370_5725)"/>
</g>
<mask id="mask8_370_5725" style="mask-type:luminance" maskUnits="userSpaceOnUse" x="41" y="57" width="33" height="42">
<path d="M73.8245 68.052V88.9982C73.8245 96.2508 66.5673 98.8555 57.6188 98.8555C48.67 98.8555 41.4167 96.2508 41.4167 88.9982V57.1167" fill="white"/>
</mask>
<g mask="url(#mask8_370_5725)">
<path d="M73.8245 68.052V88.9982C73.8245 96.2508 66.5673 98.8555 57.6188 98.8555C48.67 98.8555 41.4167 96.2508 41.4167 88.9982V57.1167" fill="url(#paint8_linear_370_5725)"/>
</g>
<path d="M40.2195 57.1168V88.9983C40.2195 96.0932 46.4002 99.9999 57.6188 99.9999C68.8408 99.9999 75.0221 96.0932 75.0221 88.9983V68.0521C75.0221 67.4197 74.4848 66.9064 73.8245 66.9064C73.1643 66.9064 72.6274 67.4197 72.6274 68.0521V88.9983C72.6274 96.1985 64.4665 97.7094 57.6188 97.7094C50.7745 97.7094 42.6139 96.1985 42.6139 88.9983V57.1168C42.6139 56.4844 42.0776 55.9717 41.4167 55.9717C40.7556 55.9717 40.2195 56.4844 40.2195 57.1168Z" fill="#363254"/>
<path d="M51.6094 91.0299C51.6094 93.7582 49.3216 95.9709 46.4964 95.9709C43.6715 95.9709 41.3828 93.7582 41.3828 91.0299C41.3828 88.2984 43.6715 82.1328 46.4964 82.1328C49.3216 82.1328 51.6094 88.2984 51.6094 91.0299Z" fill="#8B9DD7"/>
<path d="M41.782 91.0299C41.782 88.3703 44.0615 82.5132 46.4964 82.5132C48.9316 82.5132 51.211 88.3703 51.211 91.0299C51.211 93.545 49.0976 95.5894 46.4964 95.5894C43.8985 95.5894 41.782 93.545 41.782 91.0299ZM40.9832 91.0299C40.9832 93.9645 43.4564 96.353 46.4964 96.353C49.5368 96.353 52.0096 93.9645 52.0096 91.0299C52.0096 88.2627 49.683 81.7485 46.4964 81.7485C43.3126 81.7485 40.9832 88.2627 40.9832 91.0299Z" fill="#363254"/>
<path d="M42.256 91.3566C42.256 88.9133 45.1189 84.524 47.2135 84.524C47.413 84.524 47.6067 84.5866 47.8002 84.6821C47.2725 83.9103 46.6769 83.3965 46.0444 83.3965C43.9489 83.3965 42.256 88.9166 42.256 91.3566Z" fill="#A6BDE6"/>
<path d="M55.7753 91.4166C55.7753 95.0149 53.4055 97.9429 50.4818 97.9429C47.5538 97.9429 45.184 95.0149 45.184 91.4166C45.184 87.8134 47.5538 79.6765 50.4818 79.6765C53.4055 79.6765 55.7753 87.8134 55.7753 91.4166Z" fill="#8B9DD7"/>
<path d="M45.5826 91.4164C45.5826 87.8676 47.9524 80.0573 50.4818 80.0573C53.0106 80.0573 55.3768 87.8676 55.3768 91.4164C55.3768 94.8033 53.1813 97.56 50.4818 97.56C47.7814 97.56 45.5826 94.8033 45.5826 91.4164ZM44.7847 91.4164C44.7847 95.2249 47.3408 98.3247 50.4818 98.3247C53.6215 98.3247 56.1749 95.2249 56.1749 91.4164C56.1749 87.7995 53.7706 79.2954 50.4818 79.2954C47.1917 79.2954 44.7847 87.7995 44.7847 91.4164Z" fill="#363254"/>
<path d="M46.6117 92.0692C46.6117 88.5994 49.4774 82.3635 51.5697 82.3635C51.769 82.3635 51.9655 82.4535 52.1559 82.5864C51.6319 81.4852 51.0326 80.7595 50.4005 80.7595C48.3048 80.7595 46.6117 88.6043 46.6117 92.0692Z" fill="#A6BDE6"/>
<path d="M58.5541 93.3541C58.5541 95.9015 56.8484 97.9662 54.7435 97.9662C52.6393 97.9662 50.9334 95.9015 50.9334 93.3541C50.9334 90.7943 52.6393 85.0371 54.7435 85.0371C56.8484 85.0371 58.5541 90.7943 58.5541 93.3541Z" fill="#8B9DD7"/>
<path d="M51.3325 93.3543C51.3325 90.5952 53.1418 85.4188 54.7435 85.4188C56.3492 85.4188 58.1551 90.5952 58.1551 93.3543C58.1551 95.6883 56.6259 97.5837 54.7435 97.5837C52.8631 97.5837 51.3325 95.6883 51.3325 93.3543ZM50.5341 93.3543C50.5341 96.1082 52.424 98.3483 54.7435 98.3483C57.067 98.3483 58.9526 96.1082 58.9526 93.3543C58.9526 90.8461 57.2757 84.6558 54.7435 84.6558C52.2124 84.6558 50.5341 90.8461 50.5341 93.3543Z" fill="#363254"/>
<path d="M52.536 91.833C52.3429 90.0138 54.1289 86.9979 55.5202 86.78C55.6513 86.7591 55.7847 86.7899 55.9192 86.8399C55.5108 86.3156 55.0492 85.9001 54.6538 86.0653C53.2749 86.6527 52.3429 90.0198 52.536 91.833Z" fill="#A6BDE6"/>
<mask id="mask9_370_5725" style="mask-type:luminance" maskUnits="userSpaceOnUse" x="91" y="53" width="33" height="46">
<path d="M123.412 53.6581V88.1794C123.412 95.4315 116.155 98.0344 107.207 98.0344C98.257 98.0344 91.0048 95.4315 91.0048 88.1794V68.3448" fill="white"/>
</mask>
<g mask="url(#mask9_370_5725)">
<path d="M123.412 53.6581V88.1794C123.412 95.4315 116.155 98.0344 107.207 98.0344C98.257 98.0344 91.0048 95.4315 91.0048 88.1794V68.3448" fill="url(#paint9_linear_370_5725)"/>
</g>
<path d="M122.213 53.658V88.1793C122.213 95.3786 114.052 96.8886 107.207 96.8886C100.363 96.8886 92.2025 95.3786 92.2025 88.1793V68.3447C92.2025 67.7123 91.6662 67.1985 91.0048 67.1985C90.344 67.1985 89.8077 67.7123 89.8077 68.3447V88.1793C89.8077 95.2731 95.9869 99.181 107.207 99.181C118.428 99.181 124.608 95.2731 124.608 88.1793V53.658C124.608 53.025 124.073 52.5134 123.412 52.5134C122.75 52.5134 122.213 53.025 122.213 53.658Z" fill="#363254"/>
<path d="M101.198 90.2105C101.198 92.937 98.909 95.1493 96.0843 95.1493C93.2595 95.1493 90.9711 92.937 90.9711 90.2105C90.9711 87.479 93.2595 81.3123 96.0843 81.3123C98.909 81.3123 101.198 87.479 101.198 90.2105Z" fill="#8B9DD7"/>
<path d="M91.3707 90.2104C91.3707 87.5497 93.6492 81.6953 96.0843 81.6953C98.5205 81.6953 100.8 87.5497 100.8 90.2104C100.8 92.7234 98.6838 94.7692 96.0843 94.7692C93.4853 94.7692 91.3707 92.7234 91.3707 90.2104ZM90.5721 90.2104C90.5721 93.1449 93.0443 95.5328 96.0843 95.5328C99.1243 95.5328 101.597 93.1449 101.597 90.2104C101.597 87.4427 99.2699 80.9307 96.0843 80.9307C92.8998 80.9307 90.5721 87.4427 90.5721 90.2104Z" fill="#363254"/>
<path d="M91.8438 90.5355C91.8438 88.0933 94.7062 83.7045 96.8015 83.7045C97.0013 83.7045 97.1944 83.7666 97.3881 83.861C96.8613 83.0892 96.2658 82.5759 95.6326 82.5759C93.5373 82.5759 91.8438 88.0966 91.8438 90.5355Z" fill="#A6BDE6"/>
<path d="M105.364 90.5953C105.364 94.1957 102.995 97.1231 100.069 97.1231C97.1408 97.1231 94.7715 94.1957 94.7715 90.5953C94.7715 86.9921 97.1408 78.8574 100.069 78.8574C102.995 78.8574 105.364 86.9921 105.364 90.5953Z" fill="#8B9DD7"/>
<path d="M95.1706 90.5952C95.1706 87.0463 97.5387 79.2383 100.069 79.2383C102.599 79.2383 104.965 87.0463 104.965 90.5952C104.965 93.9831 102.768 96.7411 100.069 96.7411C97.3671 96.7411 95.1706 93.9831 95.1706 90.5952ZM94.3725 90.5952C94.3725 94.4047 96.9277 97.5036 100.069 97.5036C103.209 97.5036 105.763 94.4047 105.763 90.5952C105.763 86.9799 103.359 78.4736 100.069 78.4736C96.7772 78.4736 94.3725 86.9799 94.3725 90.5952Z" fill="#363254"/>
<path d="M96.1999 91.2495C96.1999 87.7802 99.0656 81.5443 101.157 81.5443C101.357 81.5443 101.553 81.6338 101.744 81.7661C101.221 80.665 100.622 79.9409 99.9882 79.9409C97.8929 79.9409 96.1999 87.783 96.1999 91.2495Z" fill="#A6BDE6"/>
<path d="M108.141 92.5335C108.141 95.0821 106.436 97.1469 104.332 97.1469C102.228 97.1469 100.522 95.0821 100.522 92.5335C100.522 89.9749 102.228 84.2161 104.332 84.2161C106.436 84.2161 108.141 89.9749 108.141 92.5335Z" fill="#8B9DD7"/>
<path d="M100.92 92.5336C100.92 89.7752 102.728 84.5999 104.332 84.5999C105.936 84.5999 107.743 89.7752 107.743 92.5336C107.743 94.8671 106.212 96.7649 104.332 96.7649C102.452 96.7649 100.92 94.8671 100.92 92.5336ZM100.122 92.5336C100.122 95.2887 102.01 97.5278 104.332 97.5278C106.653 97.5278 108.54 95.2887 108.54 92.5336C108.54 90.0266 106.864 83.8352 104.332 83.8352C101.8 83.8352 100.122 90.0266 100.122 92.5336Z" fill="#363254"/>
<path d="M102.124 91.0134C101.932 89.1937 103.717 86.179 105.109 85.9605C105.239 85.9402 105.373 85.9687 105.508 86.0203C105.098 85.495 104.638 85.0822 104.242 85.2441C102.863 85.8315 101.932 89.1998 102.124 91.0134Z" fill="#A6BDE6"/>
<path d="M11.3491 23.554C10.9263 24.1238 11.0754 24.9071 11.6849 25.3056C12.2919 25.7036 13.1288 25.5614 13.5512 24.9933C15.9588 21.7485 21.3741 20.8543 23.9487 21.776C24.4617 21.9604 25.11 21.8803 25.3934 21.5932C25.6766 21.3099 25.4914 20.929 24.9772 20.7451C21.4521 19.4814 14.5368 19.2525 11.3491 23.554Z" fill="#363254"/>
<path d="M21.7842 37.817C19.5607 38.282 17.6004 37.048 17.4075 35.0619C17.2153 33.0726 18.8635 31.0849 21.0876 30.6156C23.3135 30.149 25.2732 31.3797 25.4676 33.3701C25.6585 35.3589 24.0107 37.346 21.7842 37.817ZM26.382 33.105C26.1592 30.7874 23.844 29.3613 21.2057 29.9118C18.5706 30.4652 16.613 32.7861 16.8344 35.1004C17.0562 37.4136 19.3722 38.8435 22.0075 38.2951C24.6456 37.7402 26.6038 35.4198 26.382 33.105Z" fill="#363254"/>
<path d="M25.3268 33.5302C25.4957 35.2786 24.0539 37.0297 22.1069 37.4381C20.152 37.8509 18.4378 36.7629 18.2636 35.0145C18.0961 33.2662 19.538 31.5167 21.4859 31.1078C23.4389 30.6961 25.1578 31.7802 25.3268 33.5302Z" fill="#FCFCFC"/>
<path d="M25.0415 33.5477C24.5142 32.2154 23.114 31.4431 21.9265 31.8142C21.29 32.0096 20.854 32.4976 20.6508 33.1075L22.3106 33.9221L20.7856 35.0139C21.3507 36.2704 22.6875 36.9917 23.841 36.6333C25.0333 36.2578 25.5683 34.8794 25.0415 33.5477Z" fill="#363254"/>
<path d="M23.8194 32.977C24.1149 32.9348 24.4628 33.2894 24.5892 33.7818C24.7167 34.2681 24.5795 34.7007 24.2775 34.7468C23.9787 34.7913 23.6315 34.4339 23.5035 33.9432C23.3794 33.4574 23.5195 33.0259 23.8194 32.977Z" fill="white"/>
<path d="M18.9907 30.969C16.9094 32.562 16.2515 34.8758 17.6576 36.1872C17.5357 36.1356 17.8012 36.4726 17.6887 36.4101C15.4748 35.1925 15.1049 31.5773 17.1431 29.4501C18.8927 27.6222 24.143 26.2669 24.1041 26.9717C23.8875 27.7803 22.3504 28.8068 20.4419 29.9222C19.8275 30.2686 19.3845 30.6682 18.9907 30.969Z" fill="#363254"/>
<path d="M53.1871 53.4226C53.0799 53.9649 53.4498 54.4101 54.0078 54.4101H57.2142C57.7732 54.4101 58.3161 53.9649 58.424 53.4226L59.278 49.0575C59.3853 48.514 59.9272 48.0699 60.4867 48.0699H63.9567C65.9358 48.0699 67.564 47.8635 68.8408 47.4502C70.1203 47.0391 71.2803 46.3463 72.328 45.3752C73.2035 44.576 73.9153 43.6938 74.4576 42.7272C75 41.7638 75.3874 40.6989 75.6143 39.534C76.1688 36.7081 75.6232 34.6057 74.3624 32.9265C72.7791 30.8241 68.7384 30.7127 68.7384 30.7127C68.1861 30.6303 67.2785 30.5601 66.72 30.5601H58.6803C58.1224 30.5601 57.5795 31.0058 57.4716 31.5498L53.1871 53.4226ZM65.7504 34.3241C67.7411 34.3241 69.0655 34.6891 69.7291 35.4176C70.391 36.146 70.5498 37.3976 70.2039 39.169C69.8403 41.0151 69.143 42.3341 68.1103 43.123C67.0776 43.9112 64.4034 44.1967 64.4034 44.1967C63.8472 44.2571 62.9362 44.3059 62.3789 44.3059H61.2244C60.6666 44.3059 60.2952 43.8607 60.4026 43.3178L61.971 35.3133C62.0773 34.7698 62.6213 34.3241 63.1786 34.3241H65.7504Z" fill="#363254"/>
<path d="M53.1871 53.4226C53.0799 53.9649 53.4498 54.4101 54.0078 54.4101H57.2142C57.7732 54.4101 58.3161 53.9649 58.424 53.4226L59.278 49.0575C59.3853 48.514 59.9272 48.0699 60.4867 48.0699H63.9567C65.9358 48.0699 67.564 47.8635 68.8408 47.4502C70.1203 47.0391 71.2803 46.3463 72.328 45.3752C73.2035 44.576 73.9153 43.6938 74.4576 42.7272C75 41.7638 75.3874 40.6989 75.6143 39.534C76.1688 36.7081 75.6232 34.6057 74.3624 32.9265C72.7791 30.8241 68.7384 30.7127 68.7384 30.7127C68.1861 30.6303 67.2785 30.5601 66.72 30.5601H58.6803C58.1224 30.5601 57.5795 31.0058 57.4716 31.5498L53.1871 53.4226ZM65.7504 34.3241C67.7411 34.3241 69.0655 34.6891 69.7291 35.4176C70.391 36.146 70.5498 37.3976 70.2039 39.169C69.8403 41.0151 69.143 42.3341 68.1103 43.123C67.0776 43.9112 64.4034 44.1967 64.4034 44.1967C63.8472 44.2571 62.9362 44.3059 62.3789 44.3059H61.2244C60.6666 44.3059 60.2952 43.8607 60.4026 43.3178L61.971 35.3133C62.0773 34.7698 62.6213 34.3241 63.1786 34.3241H65.7504Z" stroke="white" stroke-width="5.29133"/>
<path d="M80.6655 25.2084C80.7718 24.6661 81.3147 24.2214 81.8726 24.2214H85.0388C85.5977 24.2214 85.9669 24.6661 85.8595 25.2084L85.005 29.5735C84.8982 30.1175 85.2701 30.56 85.8269 30.56H88.4241C88.982 30.56 89.8935 30.6077 90.4481 30.6643C90.4481 30.6643 94.2358 30.7082 95.465 32.0728C96.4661 33.1839 96.9011 34.7143 96.4589 36.971L94.4798 47.0818C94.3741 47.6252 93.8296 48.0699 93.2711 48.0699H90.0236C89.4652 48.0699 89.0949 47.6252 89.2017 47.0818L90.8831 38.5047C90.9893 37.9618 91.1089 37.0654 91.1498 36.5121C91.1498 36.5121 91.2245 35.4971 90.8155 35.0618C90.4082 34.6248 89.5382 34.4074 88.2089 34.4074H85.072C84.513 34.4074 83.9717 34.851 83.8633 35.3944L81.5759 47.0818C81.4691 47.6252 80.9262 48.0699 80.3678 48.0699H77.201C76.6426 48.0699 76.2735 47.6252 76.3797 47.0818L80.6655 25.2084Z" fill="#363254"/>
<path d="M80.6655 25.2084C80.7718 24.6661 81.3147 24.2214 81.8726 24.2214H85.0388C85.5977 24.2214 85.9669 24.6661 85.8595 25.2084L85.005 29.5735C84.8982 30.1175 85.2701 30.56 85.8269 30.56H88.4241C88.982 30.56 89.8935 30.6077 90.4481 30.6643C90.4481 30.6643 94.2358 30.7082 95.465 32.0728C96.4661 33.1839 96.9011 34.7143 96.4589 36.971L94.4798 47.0818C94.3741 47.6252 93.8296 48.0699 93.2711 48.0699H90.0236C89.4652 48.0699 89.0949 47.6252 89.2017 47.0818L90.8831 38.5047C90.9893 37.9618 91.1089 37.0654 91.1498 36.5121C91.1498 36.5121 91.2245 35.4971 90.8155 35.0618C90.4082 34.6248 89.5382 34.4074 88.2089 34.4074H85.072C84.513 34.4074 83.9717 34.851 83.8633 35.3944L81.5759 47.0818C81.4691 47.6252 80.9262 48.0699 80.3678 48.0699H77.201C76.6426 48.0699 76.2735 47.6252 76.3797 47.0818L80.6655 25.2084Z" stroke="white" stroke-width="5.29133"/>
<path d="M96.7257 53.4226C96.6183 53.9649 96.9886 54.4101 97.5475 54.4101H100.754C101.31 54.4101 101.856 53.9649 101.962 53.4226L102.816 49.0575C102.923 48.514 103.467 48.0699 104.024 48.0699H107.496C109.474 48.0699 111.101 47.8635 112.381 47.4502C113.657 47.0391 114.819 46.3463 115.865 45.3752C116.743 44.576 117.452 43.6938 117.996 42.7272C118.539 41.7638 118.925 40.6989 119.153 39.534C119.707 36.7081 119.206 34.5733 117.9 32.9265C116.28 30.8823 112.276 30.7127 112.276 30.7127C111.723 30.6303 110.815 30.5601 110.257 30.5601H102.217C101.66 30.5601 101.116 31.0058 101.01 31.5498L96.7257 53.4226ZM109.29 34.3241C111.279 34.3241 112.604 34.6891 113.269 35.4176C113.929 36.146 114.088 37.3976 113.741 39.169C113.378 41.0151 112.683 42.3341 111.649 43.123C110.615 43.9112 107.941 44.1967 107.941 44.1967C107.387 44.2571 106.476 44.3059 105.917 44.3059H104.761C104.202 44.3059 103.835 43.8607 103.94 43.3178L105.508 35.3133C105.615 34.7698 106.158 34.3241 106.716 34.3241H109.29Z" fill="#363254"/>
<path d="M96.7257 53.4226C96.6183 53.9649 96.9886 54.4101 97.5475 54.4101H100.754C101.31 54.4101 101.856 53.9649 101.962 53.4226L102.816 49.0575C102.923 48.514 103.467 48.0699 104.024 48.0699H107.496C109.474 48.0699 111.101 47.8635 112.381 47.4502C113.657 47.0391 114.819 46.3463 115.865 45.3752C116.743 44.576 117.452 43.6938 117.996 42.7272C118.539 41.7638 118.925 40.6989 119.153 39.534C119.707 36.7081 119.206 34.5733 117.9 32.9265C116.28 30.8823 112.276 30.7127 112.276 30.7127C111.723 30.6303 110.815 30.5601 110.257 30.5601H102.217C101.66 30.5601 101.116 31.0058 101.01 31.5498L96.7257 53.4226ZM109.29 34.3241C111.279 34.3241 112.604 34.6891 113.269 35.4176C113.929 36.146 114.088 37.3976 113.741 39.169C113.378 41.0151 112.683 42.3341 111.649 43.123C110.615 43.9112 107.941 44.1967 107.941 44.1967C107.387 44.2571 106.476 44.3059 105.917 44.3059H104.761C104.202 44.3059 103.835 43.8607 103.94 43.3178L105.508 35.3133C105.615 34.7698 106.158 34.3241 106.716 34.3241H109.29Z" stroke="white" stroke-width="5.29133"/>
<path d="M53.1871 53.4226C53.0799 53.9649 53.4498 54.4101 54.0078 54.4101H57.2142C57.7732 54.4101 58.3161 53.9649 58.424 53.4226L59.278 49.0575C59.3853 48.514 59.9272 48.0699 60.4867 48.0699H63.9567C65.9358 48.0699 67.564 47.8635 68.8408 47.4502C70.1203 47.0391 71.2803 46.3463 72.328 45.3752C73.2035 44.576 73.9153 43.6938 74.4576 42.7272C75 41.7638 75.3874 40.6989 75.6143 39.534C76.1688 36.7081 75.6232 34.6057 74.3624 32.9265C72.7791 30.8241 68.7384 30.7127 68.7384 30.7127C68.1861 30.6303 67.2785 30.5601 66.72 30.5601H58.6803C58.1224 30.5601 57.5795 31.0058 57.4716 31.5498L53.1871 53.4226ZM65.7504 34.3241C67.7411 34.3241 69.0655 34.6891 69.7291 35.4176C70.391 36.146 70.5498 37.3976 70.2039 39.169C69.8403 41.0151 69.143 42.3341 68.1103 43.123C67.0776 43.9112 64.4034 44.1967 64.4034 44.1967C63.8472 44.2571 62.9362 44.3059 62.3789 44.3059H61.2244C60.6666 44.3059 60.2952 43.8607 60.4026 43.3178L61.971 35.3133C62.0773 34.7698 62.6213 34.3241 63.1786 34.3241H65.7504Z" fill="#363254"/>
<path d="M80.6655 25.2084C80.7718 24.6661 81.3147 24.2214 81.8726 24.2214H85.0388C85.5977 24.2214 85.9669 24.6661 85.8595 25.2084L85.005 29.5735C84.8982 30.1175 85.2701 30.56 85.8269 30.56H88.4241C88.982 30.56 89.8935 30.6077 90.4481 30.6643C90.4481 30.6643 94.2358 30.7082 95.465 32.0728C96.4661 33.1839 96.9011 34.7143 96.4589 36.971L94.4798 47.0818C94.3741 47.6252 93.8296 48.0699 93.2711 48.0699H90.0236C89.4652 48.0699 89.0949 47.6252 89.2017 47.0818L90.8831 38.5047C90.9893 37.9618 91.1089 37.0654 91.1498 36.5121C91.1498 36.5121 91.2245 35.4971 90.8155 35.0618C90.4082 34.6248 89.5382 34.4074 88.2089 34.4074H85.072C84.513 34.4074 83.9717 34.851 83.8633 35.3944L81.5759 47.0818C81.4691 47.6252 80.9262 48.0699 80.3678 48.0699H77.201C76.6426 48.0699 76.2735 47.6252 76.3797 47.0818L80.6655 25.2084Z" fill="#363254"/>
<path d="M96.7257 53.4226C96.6183 53.9649 96.9886 54.4101 97.5475 54.4101H100.754C101.31 54.4101 101.856 53.9649 101.962 53.4226L102.816 49.0575C102.923 48.514 103.467 48.0699 104.024 48.0699H107.496C109.474 48.0699 111.101 47.8635 112.381 47.4502C113.657 47.0391 114.819 46.3463 115.865 45.3752C116.743 44.576 117.452 43.6938 117.996 42.7272C118.539 41.7638 118.925 40.6989 119.153 39.534C119.707 36.7081 119.206 34.5733 117.9 32.9265C116.28 30.8823 112.276 30.7127 112.276 30.7127C111.723 30.6303 110.815 30.5601 110.257 30.5601H102.217C101.66 30.5601 101.116 31.0058 101.01 31.5498L96.7257 53.4226ZM109.29 34.3241C111.279 34.3241 112.604 34.6891 113.269 35.4176C113.929 36.146 114.088 37.3976 113.741 39.169C113.378 41.0151 112.683 42.3341 111.649 43.123C110.615 43.9112 107.941 44.1967 107.941 44.1967C107.387 44.2571 106.476 44.3059 105.917 44.3059H104.761C104.202 44.3059 103.835 43.8607 103.94 43.3178L105.508 35.3133C105.615 34.7698 106.158 34.3241 106.716 34.3241H109.29Z" fill="#363254"/>
<mask id="mask10_370_5725" style="mask-type:luminance" maskUnits="userSpaceOnUse" x="31" y="1" width="35" height="50">
<path d="M31.6498 10.7276C31.6498 10.7276 41.1428 4.25399 47.1387 2.0352C49.0498 1.32762 62.8382 -2.28546 65.0736 21.3297C66.2956 34.2598 64.0951 43.1904 53.4055 44.8081C47.0084 45.7775 47.9989 50.5066 47.9989 50.5066" fill="white"/>
</mask>
<g mask="url(#mask10_370_5725)">
<path d="M31.6498 10.7276C31.6498 10.7276 41.1428 4.25399 47.1387 2.0352C49.0498 1.32762 62.8382 -2.28546 65.0736 21.3297C66.2956 34.2598 64.0951 43.1904 53.4055 44.8081C47.0084 45.7775 47.9989 50.5066 47.9989 50.5066" fill="url(#paint10_linear_370_5725)"/>
</g>
<path d="M46.7055 0.96698C40.6397 3.21267 31.3481 9.52651 30.9544 9.79494C30.417 10.1616 30.2911 10.8774 30.6755 11.3918C31.0586 11.9067 31.8073 12.0264 32.3451 11.6591C32.4387 11.5971 41.7851 5.24482 47.5685 3.10288C47.7494 3.03701 52.0059 1.50878 56.0913 3.93561C60.3445 6.46345 63.0375 12.5127 63.8831 21.4334C65.2297 35.6903 62.0402 42.3412 53.2189 43.6779C50.7181 44.0555 48.8978 45.0074 47.8063 46.5098C46.3732 48.4767 46.8052 50.6411 46.8255 50.7328C46.9554 51.3481 47.5784 51.745 48.2236 51.627C48.8695 51.5095 49.2935 50.9095 49.175 50.2909C49.1721 50.2799 48.9339 48.9471 49.7889 47.7943C50.4974 46.8397 51.7768 46.215 53.5929 45.9389C66.7079 43.954 67.2563 31.6892 66.2685 21.2265C65.3392 11.4231 62.3385 4.95059 57.3554 1.9902C52.3525 -0.982279 47.2699 0.758388 46.7055 0.96698Z" fill="#363254"/>
<mask id="mask11_370_5725" style="mask-type:luminance" maskUnits="userSpaceOnUse" x="29" y="2" width="30" height="15">
<path d="M41.3607 9.01478C52.1091 2.34798 58.0759 5.75685 58.0759 5.75685C53.4025 1.51853 48.1453 2.92325 46.9826 3.35581C41.0072 5.5746 29.4672 13.7746 29.4672 13.7746C29.4672 13.7746 27.9068 16.5198 31.0162 15.9242C31.0162 15.9242 37.7798 11.2374 41.3607 9.01478Z" fill="white"/>
</mask>
<g mask="url(#mask11_370_5725)">
<path d="M41.3607 9.01478C52.1091 2.34798 58.0759 5.75685 58.0759 5.75685C53.4025 1.51853 48.1453 2.92325 46.9826 3.35581C41.0072 5.5746 29.4672 13.7746 29.4672 13.7746C29.4672 13.7746 27.9068 16.5198 31.0162 15.9242C31.0162 15.9242 37.7798 11.2374 41.3607 9.01478Z" fill="url(#paint11_linear_370_5725)"/>
</g>
<path d="M37.4821 40.4748C37.3887 45.8873 35.5821 50.8161 32.7641 53.3303C31.4855 54.4726 30.0594 55.038 28.636 54.9688C28.1969 54.9452 27.8227 55.2685 27.7974 55.6896C27.7765 56.1122 28.1141 56.4702 28.5547 56.4921C30.4195 56.5854 32.2508 55.8784 33.8539 54.4473C36.9771 51.6588 38.9786 46.3143 39.078 40.4973C39.0866 40.0779 38.736 39.7293 38.2945 39.7227C37.8531 39.7167 37.4901 40.0532 37.4821 40.4748Z" fill="#363254"/>
<path d="M40.9396 36.6098C40.3384 37.9772 39.2877 38.8484 38.0546 38.9938C36.8524 39.1344 35.6309 38.5767 34.7861 37.5002C34.523 37.1637 34.0208 37.0945 33.6686 37.3481C33.3164 37.6006 33.2444 38.0793 33.5097 38.4158C34.7019 39.9369 36.4749 40.7191 38.2505 40.5105C40.0671 40.2932 41.5821 39.0872 42.412 37.2005C42.5822 36.8113 42.3896 36.3672 41.9848 36.202C41.5776 36.0389 41.1117 36.2217 40.9396 36.6098Z" fill="#363254"/>
<defs>
<linearGradient id="paint0_linear_370_5725" x1="58.7921" y1="35.5246" x2="106.705" y2="71.5245" gradientUnits="userSpaceOnUse">
<stop stop-color="#8C9BD6"/>
<stop offset="1" stop-color="#505E9B"/>
</linearGradient>
<linearGradient id="paint1_linear_370_5725" x1="90.3125" y1="-5.44893" x2="138.624" y2="30.8502" gradientUnits="userSpaceOnUse">
<stop stop-color="#808FD0"/>
<stop offset="1" stop-color="#505E9B"/>
</linearGradient>
<linearGradient id="paint2_linear_370_5725" x1="36.9848" y1="63.6771" x2="84.6877" y2="99.5191" gradientUnits="userSpaceOnUse">
<stop stop-color="#8C9BD6"/>
<stop offset="1" stop-color="#505E9B"/>
</linearGradient>
<linearGradient id="paint3_linear_370_5725" x1="55.0393" y1="40.7412" x2="102.742" y2="76.5828" gradientUnits="userSpaceOnUse">
<stop stop-color="#8C9BD6"/>
<stop offset="1" stop-color="#505E9B"/>
</linearGradient>
<linearGradient id="paint4_linear_370_5725" x1="57.5236" y1="36.5653" x2="103.828" y2="71.3569" gradientUnits="userSpaceOnUse">
<stop stop-color="#808FD0"/>
<stop offset="1" stop-color="#505E9B"/>
</linearGradient>
<linearGradient id="paint5_linear_370_5725" x1="49.512" y1="47.9622" x2="97.6672" y2="84.1441" gradientUnits="userSpaceOnUse">
<stop stop-color="#8C9BD6"/>
<stop offset="1" stop-color="#505E9B"/>
</linearGradient>
<linearGradient id="paint6_linear_370_5725" x1="-16.8336" y1="36.0641" x2="14.8827" y2="82.668" gradientUnits="userSpaceOnUse">
<stop stop-color="#FAFAFD"/>
<stop offset="1" stop-color="#8892D2"/>
</linearGradient>
<linearGradient id="paint7_linear_370_5725" x1="35.9715" y1="-2.29148" x2="72.9281" y2="52.0128" gradientUnits="userSpaceOnUse">
<stop stop-color="#FAFAFD"/>
<stop offset="1" stop-color="#8892D2"/>
</linearGradient>
<linearGradient id="paint8_linear_370_5725" x1="36.2239" y1="64.8578" x2="83.9019" y2="100.681" gradientUnits="userSpaceOnUse">
<stop stop-color="#8C9BD6"/>
<stop offset="1" stop-color="#505E9B"/>
</linearGradient>
<linearGradient id="paint9_linear_370_5725" x1="57.9221" y1="36.6356" x2="105.766" y2="72.5835" gradientUnits="userSpaceOnUse">
<stop stop-color="#8C9BD6"/>
<stop offset="1" stop-color="#505E9B"/>
</linearGradient>
<linearGradient id="paint10_linear_370_5725" x1="60.795" y1="32.9336" x2="108.565" y2="68.8263" gradientUnits="userSpaceOnUse">
<stop stop-color="#8C9BD6"/>
<stop offset="1" stop-color="#505E9B"/>
</linearGradient>
<linearGradient id="paint11_linear_370_5725" x1="35.0659" y1="-1.72073" x2="72.836" y2="53.7789" gradientUnits="userSpaceOnUse">
<stop stop-color="#FAFAFD"/>
<stop offset="1" stop-color="#8892D2"/>
</linearGradient>
</defs>
</svg>
