<svg width="101" height="54" viewBox="0 0 101 54" fill="none" xmlns="http://www.w3.org/2000/svg">
<mask id="mask0_348_2595" style="mask-type:luminance" maskUnits="userSpaceOnUse" x="0" y="0" width="101" height="54">
<path d="M0.61962 26.9174C0.574321 41.4553 22.8869 53.3104 50.455 53.3963C78.0231 53.4822 100.409 41.7663 100.455 27.2285C100.5 12.6909 78.1872 0.835606 50.619 0.749705C23.0509 0.663804 0.664918 12.3798 0.61962 26.9174Z" fill="white"/>
</mask>
<g mask="url(#mask0_348_2595)">
<path d="M0.61962 26.9174C0.574321 41.4553 22.8869 53.3104 50.455 53.3963C78.0231 53.4822 100.409 41.7663 100.455 27.2285C100.5 12.6909 78.1872 0.835606 50.619 0.749705C23.0509 0.663804 0.664918 12.3798 0.61962 26.9174Z" fill="url(#paint0_radial_348_2595)"/>
</g>
<mask id="mask1_348_2595" style="mask-type:luminance" maskUnits="userSpaceOnUse" x="0" y="0" width="101" height="54">
<path d="M0.540039 0.590319H100.538V53.5498H0.540039V0.590319Z" fill="white"/>
</mask>
<g mask="url(#mask1_348_2595)">
<path d="M50.5368 51.4429C77.0283 51.4429 98.5045 40.5324 98.5045 27.0738C98.5045 13.6154 77.0283 2.70478 50.5368 2.70478C24.0453 2.70478 2.56909 13.6154 2.56909 27.0738C2.56909 40.5324 24.0453 51.4429 50.5368 51.4429Z" fill="#777BB3"/>
<path d="M27.7403 30.0952C29.9186 30.0952 31.5448 29.6925 32.5737 28.8986C33.5917 28.1129 34.2947 26.7517 34.6632 24.8529C35.0068 23.0781 34.8759 21.8388 34.2743 21.17C33.6592 20.487 32.3293 20.1406 30.3216 20.1406H26.8405L24.9106 30.0952H27.7403ZM16.3545 42.3574C16.1929 42.3574 16.0394 42.285 15.9367 42.1598C15.8338 42.0347 15.7921 41.87 15.823 41.7109L20.9375 15.331C20.987 15.076 21.2099 14.8918 21.4692 14.8918H32.4923C35.9566 14.8918 38.5352 15.8347 40.156 17.6948C41.7854 19.5646 42.2886 22.1784 41.6515 25.4632C41.3922 26.8015 40.9462 28.0443 40.3261 29.1571C39.7052 30.2711 38.8846 31.3018 37.8867 32.2213C36.6922 33.342 35.3403 34.1546 33.8721 34.6328C32.4271 35.1047 30.5715 35.344 28.3567 35.344H23.8932L22.6186 41.918C22.5691 42.1732 22.3463 42.3574 22.087 42.3574H16.3545Z" fill="black"/>
<path d="M27.2869 20.6835H30.3215C32.7446 20.6835 33.5864 21.2166 33.8723 21.5342C34.3468 22.0616 34.4364 23.1736 34.1314 24.7499C33.7887 26.5146 33.1536 27.7658 32.2433 28.4684C31.3113 29.1877 29.7961 29.5522 27.7402 29.5522H25.5675L27.2869 20.6835ZM32.4922 14.3488H21.4689C20.9504 14.3488 20.5046 14.7173 20.4057 15.2275L15.2912 41.6074C15.2294 41.9257 15.3128 42.255 15.5185 42.5053C15.7243 42.7556 16.0309 42.9004 16.3544 42.9004H22.0868C22.6055 42.9004 23.0513 42.5319 23.1502 42.0217L24.3396 35.8869H28.3566C30.6283 35.8869 32.5406 35.6386 34.0401 35.149C35.5821 34.6468 37.0009 33.7952 38.2566 32.618C39.2951 31.6602 40.1505 30.5851 40.7987 29.4222C41.447 28.259 41.9128 26.9618 42.1831 25.5667C42.8538 22.109 42.3089 19.3402 40.5638 17.3377C38.8356 15.3544 36.1198 14.3488 32.4922 14.3488ZM24.2533 30.6381H27.7402C30.0514 30.6381 31.7729 30.2018 32.9041 29.3288C34.0354 28.4557 34.7984 26.9985 35.1948 24.9566C35.5742 22.9961 35.4014 21.6126 34.6765 20.8066C33.9507 20.0006 32.4993 19.5976 30.3215 19.5976H26.3939L24.2533 30.6381ZM32.4922 15.4347C35.8083 15.4347 38.2275 16.3071 39.7481 18.0521C41.2684 19.797 41.7263 22.2326 41.1197 25.3597C40.87 26.6478 40.4477 27.8255 39.8531 28.8925C39.2579 29.9601 38.4806 30.9364 37.5201 31.8216C36.3754 32.8955 35.1039 33.6607 33.7046 34.1165C32.3054 34.5735 30.5232 34.801 28.3566 34.801H23.4465L22.0868 41.8144H16.3544L21.4689 15.4347H32.4922Z" fill="white"/>
<path d="M54.7948 35.3433C54.633 35.3433 54.4797 35.2709 54.377 35.1456C54.2739 35.0206 54.2322 34.856 54.2631 34.6968L56.5255 23.0247C56.7407 21.9147 56.6876 21.118 56.3762 20.7813C56.1855 20.5755 55.6128 20.2304 53.9195 20.2304H49.8207L46.9762 34.9038C46.9267 35.159 46.7037 35.3433 46.4445 35.3433H40.7572C40.5955 35.3433 40.4422 35.2709 40.3393 35.1456C40.2364 35.0206 40.1947 34.8558 40.2255 34.6968L45.3401 8.31688C45.3895 8.06186 45.6125 7.87761 45.8718 7.87761H51.559C51.7208 7.87761 51.8741 7.95001 51.977 8.07507C52.0799 8.20032 52.1216 8.36484 52.0907 8.52412L50.8565 14.8911H55.2658C58.6249 14.8911 60.9027 15.4847 62.2293 16.7061C63.5816 17.952 64.0036 19.9442 63.4836 22.628L61.104 34.9038C61.0545 35.159 60.8317 35.3433 60.5723 35.3433H54.7948Z" fill="black"/>
<path d="M51.5589 7.3356H45.8717C45.353 7.3356 44.9072 7.7041 44.8083 8.21432L39.6938 34.5942C39.632 34.9126 39.7154 35.2418 39.9212 35.4921C40.1271 35.7424 40.4336 35.8872 40.7572 35.8872H46.4444C46.9629 35.8872 47.4089 35.5187 47.5078 35.0085L50.2671 20.7743H53.9194C55.6099 20.7743 55.9646 21.1363 55.9789 21.1519C56.0815 21.2624 56.2163 21.7747 55.9937 22.9222L53.7313 34.5942C53.6695 34.9126 53.7529 35.2418 53.9588 35.4921C54.1646 35.7424 54.4712 35.8872 54.7947 35.8872H60.5722C61.0907 35.8872 61.5367 35.5187 61.6356 35.0085L64.0151 22.7327C64.5735 19.8511 64.0958 17.6895 62.5958 16.3074C61.1644 14.9896 58.7667 14.3491 55.2657 14.3491H51.5133L52.6224 8.62879C52.6839 8.31043 52.6007 7.98102 52.3949 7.73089C52.189 7.48058 51.8825 7.3356 51.5589 7.3356ZM51.5589 8.42156L50.1992 15.435H55.2657C58.4537 15.435 60.6525 15.9928 61.8628 17.107C63.073 18.222 63.4355 20.0284 62.9518 22.5256L60.5722 34.8013H54.7947L57.0571 23.1294C57.3146 21.8016 57.22 20.8959 56.773 20.4131C56.3257 19.9302 55.3744 19.6884 53.9194 19.6884H49.374L46.4444 34.8013H40.7572L45.8717 8.42156H51.5589Z" fill="white"/>
<path d="M72.4825 30.0952C74.6608 30.0952 76.287 29.6925 77.3159 28.8986C78.3338 28.1131 79.0369 26.7519 79.4056 24.8529C79.7491 23.0781 79.6182 21.8388 79.0165 21.17C78.4014 20.487 77.0714 20.1406 75.0638 20.1406H71.5826L69.6528 30.0952H72.4825ZM61.0968 42.3574C60.9352 42.3574 60.7818 42.285 60.679 42.1598C60.5761 42.0347 60.5342 41.87 60.5651 41.7109L65.6797 15.331C65.7293 15.076 65.9521 14.8918 66.2115 14.8918H77.2345C80.699 14.8918 83.2774 15.8347 84.8983 17.6948C86.5278 19.5645 87.0308 22.1782 86.3938 25.4632C86.1342 26.8015 85.6884 28.0443 85.0682 29.1571C84.4473 30.2711 83.6267 31.3018 82.6289 32.2213C81.4344 33.342 80.0824 34.1546 78.6142 34.6328C77.1693 35.1047 75.3136 35.344 73.0989 35.344H68.6352L67.3611 41.918C67.3114 42.1732 67.0886 42.3574 66.8292 42.3574H61.0968Z" fill="black"/>
<path d="M72.0291 20.6835H75.0638C77.4869 20.6835 78.3286 21.2166 78.6146 21.5342C79.0892 22.0616 79.1788 23.1736 78.8737 24.7497C78.531 26.5146 77.8957 27.7658 76.9855 28.4684C76.0535 29.1877 74.5384 29.5522 72.4825 29.5522H70.31L72.0291 20.6835ZM77.2345 14.3488H66.2114C65.6928 14.3488 65.2471 14.7173 65.1481 15.2275L60.0336 41.6074C59.9719 41.9257 60.0553 42.255 60.2609 42.5053C60.4667 42.7556 60.7733 42.9004 61.0968 42.9004H66.8292C67.3477 42.9004 67.7937 42.5319 67.8926 42.0217L69.0819 35.8869H73.0989C75.3705 35.8869 77.2829 35.6386 78.7823 35.149C80.3244 34.6468 81.7435 33.795 82.9992 32.6176C84.0377 31.66 84.8927 30.5851 85.5409 29.4222C86.1893 28.259 86.6551 26.9618 86.9253 25.5667C87.5961 22.1088 87.0512 19.34 85.306 17.3375C83.5778 15.3544 80.8622 14.3488 77.2345 14.3488ZM68.9958 30.6381H72.4825C74.7937 30.6381 76.5152 30.2018 77.6463 29.3288C78.7778 28.4557 79.5406 26.9985 79.9371 24.9566C80.3166 22.9961 80.1438 21.6126 79.4187 20.8066C78.6929 20.0006 77.2415 19.5976 75.0638 19.5976H71.1362L68.9958 30.6381ZM77.2345 15.4347C80.5506 15.4347 82.9697 16.3071 84.4903 18.0521C86.0109 19.797 86.4686 22.2326 85.8619 25.3597C85.6122 26.6478 85.1899 27.8255 84.5954 28.8925C84.0001 29.9601 83.2229 30.9364 82.2624 31.8216C81.1177 32.8955 79.8461 33.6607 78.4469 34.1165C77.0476 34.5735 75.2654 34.801 73.0989 34.801H68.1887L66.8292 41.8144H61.0968L66.2114 15.4347H77.2345Z" fill="white"/>
</g>
<defs>
<radialGradient id="paint0_radial_348_2595" cx="0" cy="0" r="1" gradientUnits="userSpaceOnUse" gradientTransform="translate(30.6435 9.942) rotate(0.17853) scale(65.549 65.7109)">
<stop stop-color="#AEB2D5"/>
<stop offset="0.3" stop-color="#AEB2D5"/>
<stop offset="0.75" stop-color="#484C89"/>
<stop offset="1" stop-color="#484C89"/>
</radialGradient>
</defs>
</svg>
